<?xml version="1.0" encoding="utf-8"?>
<!-- Generator: Adobe Illustrator 16.0.0, SVG Export Plug-In . SVG Version: 6.00 Build 0)  -->
<!DOCTYPE svg PUBLIC "-//W3C//DTD SVG 1.1//EN" "http://www.w3.org/Graphics/SVG/1.1/DTD/svg11.dtd">
<svg version="1.1" xmlns="http://www.w3.org/2000/svg" xmlns:xlink="http://www.w3.org/1999/xlink" x="0px" y="0px" width="600px"
	 height="300px" viewBox="0 0 600 300" enable-background="new 0 0 600 300" xml:space="preserve">
<g id="Calque_3" display="none">
	
		<rect x="50" y="50" display="inline" fill="#FFFFFF" stroke="#1D1D1B" stroke-width="0.7454" stroke-miterlimit="10" width="500" height="200"/>
</g>
<g id="virement" display="none">
	<g display="inline">
		<g>
			<path fill="#EA6201" d="M200.845,139.25l-22.354-62.538h13.689l15.827,46.286l15.317-46.286h13.397l-22.396,62.538H200.845z
				 M241.497,87.806V76.712h11.987v11.094H241.497z M241.497,139.25V93.949h11.987v45.301H241.497z M277.24,139.25h-11.986V93.949
				h11.135v6.443c1.903-3.046,3.614-5.05,5.143-6.018c1.519-0.969,3.246-1.452,5.183-1.452c2.73,0,5.359,0.751,7.889,2.263
				l-3.714,10.45c-2.02-1.311-3.898-1.962-5.634-1.962c-1.678,0-3.098,0.459-4.265,1.386c-1.169,0.926-2.087,2.597-2.755,5.009
				c-0.668,2.42-1.002,7.479-1.002,15.184v13.998H277.24z M325.997,124.834l11.945,2.004c-1.537,4.382-3.957,7.713-7.271,10
				s-7.462,3.432-12.438,3.432c-7.88,0-13.706-2.571-17.487-7.723c-2.989-4.123-4.482-9.323-4.482-15.608
				c0-7.505,1.961-13.391,5.884-17.639c3.923-4.249,8.891-6.377,14.884-6.377c6.735,0,12.054,2.229,15.952,6.678
				c3.896,4.448,5.759,11.269,5.584,20.451h-30.033c0.084,3.555,1.051,6.318,2.896,8.297c1.845,1.978,4.148,2.964,6.913,2.964
				c1.877,0,3.455-0.51,4.731-1.537C324.354,128.749,325.346,127.105,325.997,124.834L325.997,124.834z M326.682,112.715
				c-0.083-3.474-0.985-6.111-2.688-7.914c-1.703-1.804-3.782-2.712-6.228-2.712c-2.612,0-4.775,0.95-6.486,2.854
				c-1.703,1.903-2.545,4.491-2.521,7.764h17.922V112.715z M347.457,93.949h11.053v6.186c3.949-4.809,8.656-7.212,14.123-7.212
				c2.897,0,5.419,0.601,7.547,1.794c2.129,1.193,3.881,2.997,5.25,5.418c1.987-2.421,4.141-4.225,6.445-5.418
				c2.304-1.193,4.765-1.794,7.38-1.794c3.33,0,6.144,0.676,8.446,2.028s4.024,3.339,5.159,5.952
				c0.826,1.936,1.235,5.058,1.235,9.383v28.964h-11.987v-25.893c0-4.491-0.409-7.396-1.235-8.698
				c-1.109-1.703-2.813-2.563-5.116-2.563c-1.678,0-3.256,0.509-4.734,1.535c-1.477,1.027-2.546,2.521-3.197,4.5
				c-0.649,1.979-0.983,5.1-0.983,9.365v21.753h-11.987v-24.824c0-4.408-0.217-7.255-0.643-8.531
				c-0.426-1.277-1.086-2.229-1.987-2.855c-0.893-0.626-2.113-0.935-3.647-0.935c-1.844,0-3.514,0.501-4.992,1.494
				c-1.478,0.994-2.538,2.429-3.181,4.307c-0.643,1.879-0.959,4.992-0.959,9.341v22.014h-11.988V93.949z M452.269,124.834
				l11.945,2.004c-1.537,4.382-3.957,7.713-7.271,10c-3.313,2.287-7.464,3.432-12.438,3.432c-7.88,0-13.707-2.571-17.488-7.723
				c-2.988-4.123-4.482-9.323-4.482-15.608c0-7.505,1.962-13.391,5.885-17.639c3.923-4.249,8.891-6.377,14.883-6.377
				c6.737,0,12.055,2.229,15.952,6.678c3.898,4.448,5.759,11.269,5.585,20.451h-30.033c0.082,3.555,1.052,6.318,2.896,8.297
				c1.846,1.978,4.149,2.964,6.913,2.964c1.877,0,3.455-0.51,4.731-1.537C450.624,128.749,451.608,127.105,452.269,124.834
				L452.269,124.834z M452.944,112.715c-0.084-3.474-0.985-6.111-2.688-7.914c-1.704-1.804-3.781-2.712-6.228-2.712
				c-2.612,0-4.773,0.95-6.486,2.854c-1.702,1.903-2.545,4.491-2.519,7.764h17.921V112.715z M515.825,139.25h-11.987v-23.122
				c0-4.892-0.259-8.056-0.77-9.491c-0.508-1.435-1.343-2.554-2.494-3.347s-2.538-1.193-4.157-1.193
				c-2.079,0-3.94,0.567-5.585,1.702c-1.652,1.136-2.779,2.647-3.389,4.524c-0.608,1.879-0.919,5.351-0.919,10.409v20.518h-11.986
				V93.949h11.137v6.652c3.955-5.117,8.931-7.679,14.933-7.679c2.646,0,5.059,0.476,7.254,1.427c2.188,0.951,3.848,2.17,4.966,3.648
				c1.128,1.478,1.903,3.155,2.347,5.033c0.442,1.878,0.66,4.565,0.66,8.063v28.155H515.825z M548.755,93.949v9.558h-8.188v18.255
				c0,3.698,0.075,5.853,0.233,6.462c0.159,0.609,0.509,1.118,1.069,1.512c0.55,0.4,1.226,0.591,2.027,0.591
				c1.11,0,2.713-0.384,4.816-1.151l1.026,9.3c-2.787,1.193-5.942,1.795-9.465,1.795c-2.162,0-4.107-0.36-5.844-1.085
				c-1.735-0.727-3.004-1.662-3.814-2.814c-0.811-1.151-1.369-2.713-1.687-4.675c-0.259-1.393-0.384-4.207-0.384-8.447v-19.75
				h-5.501v-9.549h5.501v-9.007l12.028-6.995v15.994h8.181V93.949z"/>
			<g>
				<g>
					<path fill="#15354E" d="M182.03,222.558l13.097-62.539h21.37c4.633,0,7.879,0.142,9.725,0.426
						c3.072,0.426,5.676,1.277,7.805,2.563c2.137,1.276,3.756,2.989,4.867,5.116c1.11,2.129,1.661,4.491,1.661,7.078
						c0,3.474-0.969,6.479-2.905,9.023c-1.937,2.548-4.917,4.475-8.958,5.778c3.214,0.885,5.727,2.453,7.53,4.716
						s2.713,4.815,2.713,7.653c0,3.757-1.068,7.313-3.197,10.685c-2.129,3.373-5.075,5.794-8.832,7.271
						c-3.756,1.478-8.89,2.221-15.4,2.221H182.03V222.558z M197.005,212.49h12.413c5.2,0,8.698-0.334,10.476-1.002
						c1.778-0.668,3.197-1.771,4.266-3.305c1.068-1.537,1.603-3.155,1.603-4.868c0-2.078-0.768-3.79-2.305-5.142
						c-1.535-1.352-4.098-2.028-7.679-2.028h-15.359L197.005,212.49z M202.673,185.277h9.809c4.408,0,7.579-0.309,9.517-0.935
						c1.936-0.626,3.38-1.653,4.349-3.071c0.968-1.421,1.452-2.947,1.452-4.567c0-1.594-0.459-2.896-1.37-3.923
						c-0.909-1.026-2.203-1.702-3.881-2.045c-0.936-0.166-3.197-0.26-6.787-0.26h-9.975L202.673,185.277L202.673,185.277z
						 M262.398,190.093l-11.945-1.025c1.369-4.041,3.749-7.194,7.146-9.467c3.397-2.271,7.897-3.413,13.498-3.413
						c5.826,0,10.142,1.177,12.922,3.522c2.788,2.345,4.181,5.209,4.181,8.599c0,1.359-0.125,2.812-0.359,4.348
						c-0.242,1.536-1.085,5.575-2.537,12.112c-1.194,5.4-1.794,9.182-1.794,11.344c0,1.938,0.341,4.082,1.026,6.445h-11.903
						c-0.483-1.653-0.785-3.356-0.893-5.117c-1.795,1.994-3.857,3.521-6.186,4.582c-2.328,1.068-4.674,1.603-7.036,1.603
						c-3.756,0-6.854-1.227-9.299-3.689c-2.445-2.463-3.665-5.625-3.665-9.491c0-4.324,1.344-7.779,4.032-10.367
						c2.688-2.588,7.488-4.148,14.4-4.69c5.826-0.485,9.724-1.068,11.687-1.746c0.509-1.701,0.768-3.07,0.768-4.098
						c0-1.312-0.526-2.404-1.578-3.28c-1.052-0.885-2.613-1.318-4.691-1.318c-2.187,0-3.916,0.45-5.184,1.343
						C263.708,187.172,262.849,188.449,262.398,190.093L262.398,190.093z M274.043,201.445c-0.743,0.202-1.72,0.385-2.947,0.553
						c-6.144,0.741-10.151,1.819-12.029,3.238c-1.334,1.025-2.002,2.403-2.002,4.141c0,1.418,0.509,2.621,1.536,3.605
						c1.026,0.984,2.371,1.47,4.048,1.47c1.845,0,3.589-0.451,5.226-1.345c1.636-0.893,2.854-2.045,3.672-3.456
						c0.81-1.409,1.528-3.605,2.154-6.595L274.043,201.445L274.043,201.445z M303.351,177.256h11.603l-1.192,5.886
						c2.896-2.506,5.607-4.292,8.121-5.353c2.521-1.067,5.166-1.602,7.955-1.602c3.724,0,6.662,1.068,8.806,3.196
						c2.146,2.129,3.223,4.968,3.223,8.489c0,1.595-0.468,4.608-1.41,9.04l-5.335,25.636h-12.245l5.376-25.727
						c0.792-3.84,1.194-6.128,1.194-6.871c0-1.561-0.46-2.796-1.386-3.688c-0.928-0.894-2.213-1.344-3.856-1.344
						c-1.795,0-3.782,0.752-5.97,2.262c-2.187,1.512-3.914,3.497-5.158,5.969c-0.91,1.76-1.936,5.358-3.071,10.793l-3.883,18.615
						h-12.244L303.351,177.256L303.351,177.256z M377.785,205.495l11.901,1.919c-1.962,5.293-4.865,9.316-8.697,12.07
						c-3.841,2.764-8.288,4.141-13.354,4.141c-5.777,0-10.352-1.719-13.74-5.158c-3.381-3.438-5.076-8.173-5.076-14.208
						c0-4.915,1.027-9.566,3.073-13.948c2.043-4.382,5.133-7.829,9.256-10.343c4.124-2.512,8.649-3.771,13.564-3.771
						c5.343,0,9.608,1.393,12.796,4.182c3.189,2.789,4.976,6.453,5.377,11.001l-11.645,1.235c-0.285-2.528-1.061-4.391-2.329-5.584
						s-2.92-1.795-4.966-1.795c-2.363,0-4.566,0.885-6.612,2.646s-3.623,4.399-4.717,7.913c-1.092,3.515-1.645,6.803-1.645,9.876
						c0,2.67,0.652,4.732,1.962,6.186c1.312,1.452,2.946,2.179,4.908,2.179c1.963,0,3.856-0.711,5.678-2.13
						C375.338,210.47,376.758,208.341,377.785,205.495L377.785,205.495z M412.935,190.093l-11.945-1.025
						c1.369-4.041,3.749-7.194,7.146-9.467c3.397-2.271,7.896-3.413,13.498-3.413c5.827,0,10.144,1.177,12.922,3.522
						c2.788,2.345,4.182,5.209,4.182,8.599c0,1.359-0.124,2.812-0.358,4.348c-0.241,1.536-1.085,5.575-2.538,12.112
						c-1.193,5.4-1.794,9.182-1.794,11.344c0,1.938,0.341,4.082,1.026,6.445h-11.904c-0.483-1.653-0.783-3.356-0.892-5.117
						c-1.796,1.994-3.857,3.521-6.186,4.582c-2.33,1.068-4.675,1.603-7.037,1.603c-3.756,0-6.853-1.227-9.299-3.689
						c-2.445-2.463-3.664-5.625-3.664-9.491c0-4.324,1.343-7.779,4.031-10.367s7.486-4.148,14.399-4.69
						c5.825-0.485,9.725-1.068,11.687-1.746c0.509-1.701,0.767-3.07,0.767-4.098c0-1.312-0.525-2.404-1.577-3.28
						c-1.051-0.885-2.612-1.318-4.69-1.318c-2.188,0-3.916,0.45-5.185,1.343C414.253,187.172,413.386,188.449,412.935,190.093
						L412.935,190.093z M424.58,201.445c-0.744,0.202-1.72,0.385-2.947,0.553c-6.145,0.741-10.15,1.819-12.029,3.238
						c-1.334,1.025-2.003,2.403-2.003,4.141c0,1.418,0.51,2.621,1.537,3.605c1.025,0.984,2.37,1.47,4.047,1.47
						c1.846,0,3.59-0.451,5.227-1.345c1.636-0.893,2.855-2.045,3.672-3.456c0.811-1.409,1.527-3.605,2.154-6.595L424.58,201.445
						L424.58,201.445z M453.712,177.256h12.245l-9.466,45.302h-12.245L453.712,177.256z M457.302,160.019h12.244l-2.304,11.094
						h-12.245L457.302,160.019z M477.301,177.256h11.437l-1.836,8.79c4.266-6.569,8.889-9.85,13.863-9.85
						c1.762,0,3.656,0.441,5.678,1.318l-4.693,10.024c-1.135-0.404-2.331-0.608-3.538-0.6c-2.103,0-4.238,0.792-6.418,2.386
						c-2.18,1.595-3.873,3.724-5.101,6.377c-1.228,2.663-2.429,6.88-3.624,12.647l-2.986,14.208h-12.247L477.301,177.256z
						 M546.625,203.7h-30.708c-0.026,0.483-0.043,0.851-0.043,1.11c0,3.014,0.86,5.442,2.579,7.295
						c1.72,1.845,3.815,2.772,6.295,2.772c4.065,0,7.237-2.104,9.516-6.312l10.961,1.837c-2.138,4.407-4.983,7.713-8.557,9.916
						c-3.572,2.204-7.571,3.306-12.011,3.306c-6.087,0-11.037-1.928-14.843-5.776c-3.815-3.855-5.718-8.948-5.718-15.292
						c0-6.202,1.72-11.72,5.158-16.553c4.691-6.544,11.387-9.808,20.093-9.808c5.542,0,9.949,1.711,13.223,5.141
						c3.271,3.431,4.907,8.223,4.907,14.399C547.478,198.684,547.192,201.347,546.625,203.7L546.625,203.7z M536.301,196.238
						c0.025-0.544,0.041-0.952,0.041-1.235c0-3.356-0.751-5.868-2.261-7.546c-1.512-1.68-3.523-2.513-6.062-2.513
						c-2.529,0-4.799,0.951-6.802,2.854c-2.004,1.904-3.364,4.727-4.075,8.449h19.158V196.238z"/>
				</g>
			</g>
		</g>
		<g>
			<g>
				<path fill="#15354E" d="M141.572,99.871c-4.205-4.967-8.837-9.6-14.282-13.61c-2.698-2.028-5.579-3.896-8.736-5.571
					c-3.183-1.642-6.442-3.226-10.338-4.314c0.067,4.046,0.77,7.606,1.601,11.091c0.787,3.385,1.852,6.56,3.091,9.608
					c-2.965,0.871-6.567,2.094-10.622,3.669c-2.621,1.174-5.495,2.229-8.394,3.795c-2.94,1.407-5.921,3.116-8.945,5.026
					c-3.074,1.733-5.94,4.196-8.947,6.324c-2.739,2.605-5.747,4.858-8.185,7.815c-2.521,2.832-4.984,5.662-6.886,8.88
					c-0.963,1.566-2.077,3.016-2.88,4.615c-0.771,1.625-1.509,3.242-2.229,4.817c-1.633,3.048-2.378,6.332-3.233,9.321
					c-1.014,2.967-1.374,5.873-1.65,8.553c-0.227,2.673-0.788,5.036-0.654,7.215c0.068,2.143,0.117,4.002,0.168,5.546
					c0.092,3.041,0.117,4.774,0.117,4.774s0.327-1.719,0.88-4.708c0.276-1.484,0.62-3.268,1.013-5.328
					c0.31-2.051,1.374-4.23,2.111-6.635c0.787-2.403,1.7-4.967,3.208-7.43c1.374-2.505,2.622-5.212,4.649-7.549
					c0.913-1.197,1.851-2.438,2.782-3.668c0.979-1.198,2.236-2.229,3.317-3.351c2.127-2.321,4.724-4.197,7.295-6.057
					c2.455-1.953,5.444-3.267,8.033-4.867c2.949-1.182,5.546-2.656,8.444-3.51c2.764-1.006,5.487-1.851,8.151-2.455
					c2.587-0.753,5.193-1.088,7.464-1.574c1.457-0.21,2.797-0.386,4.087-0.544c-0.149,0.385-0.31,0.754-0.443,1.147
					c-1.324,3.628-2.354,7.438-3.076,11.45c-0.326,2.036-0.593,4.097-0.803,6.2c-0.168,2.136-0.202,4.348-0.051,6.675
					c2.187-0.838,4.172-1.783,6.057-2.813c1.817-1.063,3.602-2.171,5.303-3.309c3.376-2.32,6.416-4.843,9.164-7.539
					c5.563-5.379,10.161-11.385,14.023-17.844l0.493-0.82C145.041,108.886,144.764,103.633,141.572,99.871z"/>
			</g>
		</g>
		<g>
			<g>
				<g>
					<path fill="#EA6201" d="M159.398,123.788c-0.159-3.033-0.293-4.759-0.293-4.759s-0.243,1.718-0.754,4.726
						c-0.243,1.483-0.519,3.283-0.845,5.353c-0.251,2.061-1.249,4.264-1.919,6.693c-0.696,2.429-1.524,5.009-2.965,7.521
						c-1.29,2.547-2.454,5.277-4.414,7.682c-0.872,1.232-1.769,2.488-2.656,3.763c-0.963,1.215-2.17,2.286-3.249,3.441
						c-2.046,2.372-4.583,4.339-7.104,6.266c-2.371,2.027-5.336,3.419-7.883,5.103c-2.897,1.265-5.453,2.821-8.326,3.753
						c-2.723,1.098-5.428,2.017-8.077,2.697c-2.554,0.839-5.134,1.248-7.396,1.792c-1.449,0.26-2.798,0.478-4.072,0.671
						c0.118-0.395,0.277-0.765,0.411-1.157c1.207-3.676,2.128-7.514,2.731-11.544c0.26-2.042,0.452-4.11,0.603-6.222
						c0.109-2.136,0.076-4.355-0.133-6.669c-2.162,0.887-4.123,1.9-5.974,2.99c-1.8,1.114-3.518,2.271-5.202,3.459
						c-3.284,2.421-6.249,5.027-8.913,7.816c-5.395,5.537-9.81,11.679-13.479,18.253l-0.477,0.822
						c-2.253,4.087-1.817,9.322,1.492,12.992c4.356,4.833,9.13,9.331,14.676,13.176c2.747,1.953,5.688,3.727,8.913,5.303
						c3.208,1.56,6.509,3.05,10.454,4.013c-0.21-4.029-1.03-7.563-1.927-11.023c-0.896-3.359-2.043-6.51-3.384-9.517
						c2.948-0.964,6.491-2.286,10.503-3.979c2.582-1.238,5.421-2.396,8.277-4.044c2.882-1.485,5.831-3.286,8.754-5.288
						c3.016-1.825,5.814-4.37,8.771-6.592c2.656-2.673,5.595-5.034,7.95-8.051c2.437-2.907,4.8-5.797,6.608-9.072
						c0.922-1.6,1.968-3.081,2.739-4.707c0.705-1.649,1.407-3.285,2.078-4.884c1.542-3.1,2.194-6.409,2.965-9.415
						c0.904-2.983,1.206-5.905,1.39-8.586c0.177-2.673,0.637-5.061,0.453-7.23C159.582,127.197,159.482,125.329,159.398,123.788z"/>
				</g>
			</g>
		</g>
	</g>
</g>
<g id="bank_transfer" display="none">
	<g display="inline">
		<g>
			<path fill="#EA6201" d="M242.615,113.106c3.984-1.992,11.715-5.846,11.715-19.577c0-9.855-5.989-24.517-29.432-24.517h-46.445
				v95.597h40.48c19.578,0,24.767-3.328,30.219-8.685c5.035-4.892,8.232-12.109,8.232-19.661
				C257.384,126.803,254.33,117.484,242.615,113.106z M197.637,85.56h22.906c9.043,0,14.639,2.386,14.639,10.236
				c0,7.611-6.24,10.666-14.126,10.666h-23.419V85.56z M222.106,148.098h-24.469v-25.566h25.424c7.206,0,14.376,3.233,14.376,11.585
				C237.413,143.816,231.818,148.098,222.106,148.098z"/>
		</g>
	</g>
	<g display="inline">
		<g>
			<polygon fill="#15354E" points="178.465,179.75 178.465,188.436 193.259,188.436 193.259,228.724 203.459,228.724 
				203.459,188.436 218.289,188.436 218.289,179.75 			"/>
		</g>
	</g>
	<g display="inline">
		<g>
			<polygon fill="#EA6201" points="507.624,108.155 546.636,69 520.818,69 484.335,107.857 484.335,69 464.364,69 464.364,164.574 
				484.335,164.574 484.335,132.231 493.653,122.639 523.193,164.574 548.891,164.574 			"/>
		</g>
	</g>
	<g display="inline">
		<g>
			<path fill="#EA6201" d="M320.257,69h-23.025l-34.049,95.586h21.021l6.645-19.686h35.278l6.132,19.674h21.689L320.257,69z
				 M296.169,128.366l12.253-37.795h0.273l11.835,37.795H296.169z"/>
		</g>
	</g>
	<g display="inline">
		<g>
			<path fill="#15354E" d="M263.195,217.652c0-9.14-2.195-10.642-6.216-12.408c4.844-1.634,7.576-6.251,7.576-11.679
				c0-4.225-2.374-13.828-15.402-13.828h-24.768v48.95h10.045v-19.148h10.558c7.576,0,7.994,2.602,7.994,9.259
				c0,5.034,0.394,7.587,1.074,9.877h11.322v-1.275C263.195,226.588,263.195,224.798,263.195,217.652z M246.385,201.32h-11.966
				v-13.124h12.742c5.989,0,7.158,3.793,7.158,6.406C254.307,199.422,251.729,201.32,246.385,201.32z"/>
		</g>
	</g>
	<g display="inline">
		<g>
			<polygon fill="#15354E" points="451.229,188.436 451.229,179.75 416.392,179.75 416.392,228.735 426.628,228.735 
				426.628,208.144 448.175,208.144 448.175,199.482 426.628,199.482 426.628,188.436 			"/>
		</g>
	</g>
	<g display="inline">
		<g>
			<polygon fill="#15354E" points="468.122,220.038 468.122,207.392 491.982,207.392 491.982,198.73 468.122,198.73 
				468.122,188.446 494.117,188.446 494.117,179.773 458.101,179.773 458.101,228.724 495.264,228.724 495.264,220.038 			"/>
		</g>
	</g>
	<g display="inline">
		<g>
			<path fill="#15354E" d="M395.776,200.807l-11.906-2.936c-2.052-0.488-5.202-1.313-5.202-5.13c0-4.426,4.665-5.846,8.53-5.846
				c8.947,0,9.771,5.166,10.045,7.35h9.783c-0.071-6.001-4.08-15.808-19.089-15.808c-15.891,0-18.813,9.604-18.813,15.056
				c0,10.784,7.624,12.587,15.545,14.399l5.237,1.242c5.166,1.252,8.864,2.254,8.864,6.096c0,5.118-5.404,6.312-10.212,6.312
				c-8.947,0-10.319-5.179-10.392-7.91h-9.783c0,6.096,3.043,16.368,20.915,16.368c4.271,0,19.291-1.336,19.291-16.022
				C408.577,205.185,402.445,202.429,395.776,200.807z"/>
		</g>
	</g>
	<g display="inline">
		<g>
			<path fill="#15354E" d="M542.412,217.652c0-9.14-2.219-10.642-6.215-12.408c4.819-1.634,7.6-6.251,7.6-11.679
				c0-4.225-2.399-13.828-15.427-13.828h-24.743v48.95h10.045v-19.148h10.559c7.553,0,7.993,2.602,7.993,9.259
				c0,5.034,0.395,7.587,1.085,9.877h11.287v-1.275C542.412,226.588,542.412,224.798,542.412,217.652z M525.639,201.32H513.66
				v-13.124h12.718c6.013,0,7.182,3.793,7.182,6.406C533.56,199.422,530.971,201.32,525.639,201.32z"/>
		</g>
	</g>
	<g display="inline">
		<g>
			<polygon fill="#EA6201" points="425.054,69.036 425.054,135.584 424.803,135.584 386.853,69.036 365.819,69.036 365.819,164.622 
				384.454,164.622 384.478,96.476 384.729,96.476 423.741,164.634 443.688,164.634 443.688,69.036 			"/>
		</g>
	</g>
	<g display="inline">
		<g>
			<path fill="#15354E" d="M297.745,179.75h-11.823l-17.454,48.95h10.785l3.4-10.106h18.063l3.148,10.106h11.12L297.745,179.75z
				 M285.397,210.148l6.287-19.352h0.096l6.108,19.352H285.397z"/>
		</g>
	</g>
	<g display="inline">
		<g>
			<polygon fill="#15354E" points="351.455,179.75 351.443,213.822 351.324,213.822 331.865,179.75 321.104,179.75 321.104,228.7 
				330.637,228.7 330.637,193.779 330.792,193.779 350.764,228.7 361.011,228.7 361.011,179.75 			"/>
		</g>
	</g>
	<g display="inline">
		<g>
			<path fill="#15354E" d="M141.572,99.871c-4.205-4.967-8.837-9.6-14.282-13.61c-2.698-2.028-5.579-3.896-8.736-5.571
				c-3.183-1.642-6.442-3.226-10.338-4.314c0.067,4.046,0.77,7.606,1.601,11.091c0.787,3.385,1.852,6.56,3.091,9.608
				c-2.965,0.871-6.567,2.094-10.622,3.669c-2.621,1.174-5.495,2.229-8.394,3.795c-2.94,1.407-5.921,3.116-8.945,5.026
				c-3.074,1.733-5.94,4.196-8.947,6.324c-2.739,2.605-5.747,4.858-8.185,7.815c-2.521,2.832-4.984,5.662-6.886,8.88
				c-0.963,1.566-2.077,3.016-2.88,4.615c-0.771,1.625-1.509,3.242-2.229,4.817c-1.633,3.048-2.378,6.332-3.233,9.321
				c-1.014,2.967-1.374,5.873-1.65,8.553c-0.227,2.673-0.788,5.036-0.654,7.215c0.068,2.143,0.117,4.002,0.168,5.546
				c0.092,3.041,0.117,4.774,0.117,4.774s0.327-1.719,0.88-4.708c0.276-1.484,0.62-3.268,1.013-5.328
				c0.31-2.051,1.374-4.23,2.111-6.635c0.787-2.403,1.7-4.967,3.208-7.43c1.374-2.505,2.622-5.212,4.649-7.549
				c0.913-1.197,1.851-2.438,2.782-3.668c0.979-1.198,2.236-2.229,3.317-3.351c2.127-2.321,4.724-4.197,7.295-6.057
				c2.455-1.953,5.444-3.267,8.033-4.867c2.949-1.182,5.546-2.656,8.444-3.51c2.764-1.006,5.487-1.851,8.151-2.455
				c2.587-0.753,5.193-1.088,7.464-1.574c1.457-0.21,2.797-0.386,4.087-0.544c-0.149,0.385-0.31,0.754-0.443,1.147
				c-1.324,3.628-2.354,7.438-3.076,11.45c-0.326,2.036-0.593,4.097-0.803,6.2c-0.168,2.136-0.202,4.348-0.051,6.675
				c2.187-0.838,4.172-1.783,6.057-2.813c1.817-1.063,3.602-2.171,5.303-3.309c3.376-2.32,6.416-4.843,9.164-7.539
				c5.563-5.379,10.161-11.385,14.023-17.844l0.493-0.82C145.041,108.886,144.764,103.633,141.572,99.871z"/>
		</g>
	</g>
	<g display="inline">
		<g>
			<g>
				<path fill="#EA6201" d="M159.398,123.788c-0.159-3.033-0.293-4.759-0.293-4.759s-0.243,1.718-0.754,4.726
					c-0.243,1.483-0.519,3.283-0.845,5.353c-0.251,2.061-1.249,4.264-1.919,6.693c-0.696,2.429-1.524,5.009-2.965,7.521
					c-1.29,2.547-2.454,5.277-4.414,7.682c-0.872,1.232-1.769,2.488-2.656,3.763c-0.963,1.215-2.17,2.286-3.249,3.441
					c-2.046,2.372-4.583,4.339-7.104,6.266c-2.371,2.027-5.336,3.419-7.883,5.103c-2.897,1.265-5.453,2.821-8.326,3.753
					c-2.723,1.098-5.428,2.017-8.077,2.697c-2.554,0.839-5.134,1.248-7.396,1.792c-1.449,0.26-2.798,0.478-4.072,0.671
					c0.118-0.395,0.277-0.765,0.411-1.157c1.207-3.676,2.128-7.514,2.731-11.544c0.26-2.042,0.452-4.11,0.603-6.222
					c0.109-2.136,0.076-4.355-0.133-6.669c-2.162,0.887-4.123,1.9-5.974,2.99c-1.8,1.114-3.518,2.271-5.202,3.459
					c-3.284,2.421-6.249,5.027-8.913,7.816c-5.395,5.537-9.81,11.679-13.479,18.253l-0.477,0.822
					c-2.253,4.087-1.817,9.322,1.492,12.992c4.356,4.833,9.13,9.331,14.676,13.176c2.747,1.953,5.688,3.727,8.913,5.303
					c3.208,1.56,6.509,3.05,10.454,4.013c-0.21-4.029-1.03-7.563-1.927-11.023c-0.896-3.359-2.043-6.51-3.384-9.517
					c2.948-0.964,6.491-2.286,10.503-3.979c2.582-1.238,5.421-2.396,8.277-4.044c2.882-1.485,5.831-3.286,8.754-5.288
					c3.016-1.825,5.814-4.37,8.771-6.592c2.656-2.673,5.595-5.034,7.95-8.051c2.437-2.907,4.8-5.797,6.608-9.072
					c0.922-1.6,1.968-3.081,2.739-4.707c0.705-1.649,1.407-3.285,2.078-4.884c1.542-3.1,2.194-6.409,2.965-9.415
					c0.904-2.983,1.206-5.905,1.39-8.586c0.177-2.673,0.637-5.061,0.453-7.23C159.582,127.197,159.482,125.329,159.398,123.788z"/>
			</g>
		</g>
	</g>
</g>
<g id="payzen" display="none">
	<g display="inline">
		<path fill="#E2001A" d="M489.331,235.809c11.792,0,21.355-9.574,21.355-21.365s-9.563-21.354-21.355-21.354
			c-11.801,0-21.364,9.563-21.364,21.354S477.53,235.809,489.331,235.809L489.331,235.809L489.331,235.809z"/>
		<path fill="#F6A800" d="M520.406,235.809c11.791,0,21.354-9.574,21.354-21.365s-9.563-21.354-21.354-21.354
			c-11.801,0-21.354,9.563-21.354,21.354S508.605,235.809,520.406,235.809L520.406,235.809L520.406,235.809z"/>
		<path fill="#EB690A" d="M504.854,229.098c-3.595-3.83-5.802-8.988-5.802-14.654c0-5.607,2.168-10.717,5.695-14.525l0,0
			l0.449,0.234l0,0c3.409,3.79,5.49,8.801,5.49,14.291c0,5.52-2.101,10.541-5.529,14.342l0,0L504.854,229.098L504.854,229.098z"/>
		<polygon fill="#FFFFFF" points="472.157,209.091 474.022,209.091 476.417,215.06 478.557,209.091 480.529,209.091 
			480.529,217.042 478.996,217.042 478.996,211.142 476.944,217.042 475.782,217.042 473.73,211.22 473.73,217.042 472.157,217.042 
					"/>
		<polygon fill="#FFFFFF" points="488.384,217.042 488.384,210.957 487.074,210.957 487.074,217.042 		"/>
		<g>
			<polygon fill="#FFFFFF" points="497.137,217.042 497.137,209.198 495.759,209.198 495.759,217.042 			"/>
			<polygon fill="#FFFFFF" points="494.968,210.957 494.968,212.412 498.035,212.412 498.035,210.957 			"/>
		</g>
		<polygon fill="#FFFFFF" points="526.063,217.042 526.063,210.957 524.754,210.957 524.754,217.042 		"/>
		<polygon fill="#FFFFFF" points="537.883,217.042 537.883,209.433 536.574,209.433 536.574,217.042 		"/>
		<path fill="#FFFFFF" d="M508.234,210.957h-1.358v6.085h1.378v-4.024l0,0c0.321-0.654,1.289-0.791,1.445-0.791l0,0v-1.31l0,0
			c-0.322,0-1.426,0.245-1.465,0.841l0,0V210.957L508.234,210.957z"/>
		<path fill="#FFFFFF" d="M529.052,210.957h-1.368v6.085h1.388v-4.024l0,0c0.313-0.654,1.29-0.791,1.437-0.791l0,0v-1.31l0,0
			c-0.313,0-1.417,0.245-1.456,0.841l0,0V210.957L529.052,210.957z"/>
		<path fill="#FFFFFF" d="M492.487,212.695h1.338l0,0c0-1.064-0.685-1.719-1.808-1.719s-2.013,0.586-2.013,1.895
			s1.378,1.494,1.603,1.553c0.273,0.078,1.025,0.167,1.025,0.997c0,0.313-0.371,0.391-0.693,0.391c-0.313,0-0.635-0.244-0.635-0.606
			l0,0h-1.495l0,0c0,1.368,1.065,1.915,2.13,1.915c1.065,0,2.081-0.859,2.081-1.895c0-1.017-0.997-1.612-1.778-1.729
			c-1.182-0.166-1.064-1.191-0.381-1.191C492.506,212.305,492.467,212.588,492.487,212.695L492.487,212.695L492.487,212.695z"/>
		<path fill="#FFFFFF" d="M517.017,214.864c-0.489,0.614-1.241,1.005-2.081,1.005c-1.465,0-2.647-1.182-2.647-2.627
			c0-1.465,1.183-2.647,2.647-2.647c0.83,0,1.583,0.382,2.062,0.986l0,0h1.719l0,0c-0.635-1.504-2.11-2.49-3.78-2.49
			c-2.295,0-4.152,1.855-4.152,4.151c0,2.275,1.857,4.143,4.152,4.143c1.7,0,3.166-1.056,3.81-2.521l0,0H517.017L517.017,214.864z"
			/>
		<path d="M534.952,232.291c0-1.387,1.133-2.412,2.462-2.412c1.309,0,2.442,1.025,2.442,2.412c0,1.398-1.134,2.414-2.442,2.414
			C536.085,234.705,534.952,233.689,534.952,232.291L534.952,232.291L534.952,232.291z"/>
		<path fill="#FFFFFF" d="M536.896,233.689h-0.421v-2.785h1.065l0,0c0.654,0,0.978,0.234,0.978,0.791
			c0,0.498-0.313,0.714-0.714,0.762l0,0l0.791,1.232h-0.479l-0.732-1.212h-0.488V233.689L536.896,233.689z"/>
		<path d="M536.848,232.105v-0.84h0.908l0,0c0.391,0.322,0.498,0.469,0,0.84l0,0H536.848L536.848,232.105z"/>
		<path fill="#FFFFFF" d="M534.737,217.189c1.748,0,3.175-1.428,3.175-3.166c0-1.758-1.427-3.174-3.175-3.174v1.348
			c1.006,0,1.826,0.82,1.826,1.826c0,0.996-0.82,1.816-1.826,1.816V217.189z M534.737,217.189L534.737,217.189v-1.35l0,0l0,0l0,0
			c-1.006,0-1.827-0.82-1.827-1.816c0-1.006,0.821-1.826,1.827-1.826l0,0v-1.348l0,0c-1.749,0-3.175,1.416-3.175,3.174
			C531.563,215.762,532.988,217.189,534.737,217.189L534.737,217.189L534.737,217.189z"/>
		<path fill="#FFFFFF" d="M522.917,217.189c1.759,0,3.175-1.428,3.175-3.166c0-1.758-1.416-3.174-3.175-3.174l0,0v1.348l0,0
			c1.006,0,1.827,0.82,1.827,1.826c0,0.996-0.821,1.816-1.827,1.816l0,0l0,0l0,0V217.189L522.917,217.189L522.917,217.189
			L522.917,217.189z M522.917,210.85c-1.749,0-3.175,1.416-3.175,3.174c0,1.739,1.426,3.166,3.175,3.166v-1.349
			c-1.007,0-1.827-0.82-1.827-1.817c0-1.006,0.82-1.826,1.827-1.826V210.85z"/>
		<path fill="#FFFFFF" d="M502.246,214.648h3.097l0,0c0.01-0.088,0.02-0.186,0.02-0.273v-0.264
			c-0.049-1.416-0.938-3.155-3.116-3.174v1.475c0.742,0,1.476,0.342,1.476,1.016l0,0h-1.476V214.648L502.246,214.648z
			 M502.246,217.209c1.23-0.02,2.959-0.82,2.959-1.848l0,0h-1.65l0,0c0,0.245-0.635,0.471-1.309,0.46V217.209z M500.731,214.648
			h1.515v-1.221h-1.476l0,0l0,0c0-0.674,0.732-1.016,1.476-1.016v-1.475c-0.01,0-0.029,0-0.039,0c-1.974,0-3.049,1.641-3.059,3.242
			v0.059c0.03,1.516,0.997,2.971,3.039,2.971c0.02,0,0.039,0,0.059,0v-1.388C501.503,215.812,500.731,215.509,500.731,214.648
			L500.731,214.648L500.731,214.648z"/>
		<path fill="#FFFFFF" d="M485.248,217.189c1.748,0,3.175-1.428,3.175-3.166c0-1.758-1.427-3.174-3.175-3.174v1.348
			c1.006,0,1.826,0.82,1.826,1.826c0,0.996-0.82,1.816-1.826,1.816V217.189z M485.248,217.189L485.248,217.189v-1.35l0,0l0,0l0,0
			c-1.007,0-1.827-0.82-1.827-1.816c0-1.006,0.82-1.826,1.827-1.826l0,0v-1.348l0,0c-1.759,0-3.175,1.416-3.175,3.174
			C482.073,215.762,483.489,217.189,485.248,217.189L485.248,217.189L485.248,217.189z"/>
	</g>
	<g display="inline">
		
			<linearGradient id="SVGID_1_" gradientUnits="userSpaceOnUse" x1="39.6924" y1="284.6924" x2="38.5458" y2="281.1726" gradientTransform="matrix(13.7931 0 0 -13.7931 -133.7578 4120.2031)">
			<stop  offset="0" style="stop-color:#222E72"/>
			<stop  offset="0.5916" style="stop-color:#40CBFF"/>
			<stop  offset="1" style="stop-color:#3CB792"/>
		</linearGradient>
		<path fill="url(#SVGID_1_)" stroke="#F1F1F1" stroke-width="0.0814" d="M377.689,192.563h58.361c1.549,0,2.806,1.257,2.806,2.807
			v38.158c0,1.55-1.257,2.807-2.806,2.807h-58.361c-1.549,0-2.805-1.257-2.805-2.807v-38.158
			C374.885,193.819,376.141,192.563,377.689,192.563z"/>
		<path fill="#FEFEFE" d="M398.818,213.783h8.813c-0.078-1.905-0.522-3.869-1.868-5.131c-1.604-1.503-4.413-2.061-6.923-2.061
			c-2.612,0-5.501,0.611-7.113,2.225c-1.39,1.389-1.691,3.623-1.691,5.631c0,2.104,0.589,4.551,2.097,5.959
			c1.604,1.5,4.202,1.898,6.708,1.898c2.435,0,5.072-0.45,6.666-1.873c1.59-1.422,2.14-3.817,2.14-5.984v-0.01h-8.827V213.783z
			 M408.224,214.438v7.516h12.261v-0.01c1.793-0.098,3.221-1.716,3.221-3.701c0-1.988-1.428-3.709-3.221-3.808v0.003H408.224z
			 M420.344,206.906c1.749,0,3.137,1.518,3.137,3.432c0,1.813-1.274,3.293-2.896,3.445h-12.36v-6.888h11.733
			c0.072-0.009,0.156-0.003,0.239,0.003C420.247,206.902,420.298,206.906,420.344,206.906z"/>
	</g>
	<g display="inline">
		<path fill="#1A2ADF" d="M298.033,200.405l-11.798,28.153h-7.701l-5.802-22.465c-0.357-1.387-0.662-1.891-1.733-2.479
			c-1.754-0.949-4.64-1.838-7.188-2.393l0.178-0.816h12.39c1.58,0,3,1.053,3.358,2.871l3.067,16.293l7.578-19.164L298.033,200.405
			L298.033,200.405z M328.197,219.363c0.034-7.428-10.276-7.831-10.202-11.153c0.021-1.015,0.981-2.088,3.087-2.358
			c1.045-0.139,3.922-0.241,7.182,1.256l1.278-5.968c-1.754-0.636-4.009-1.246-6.813-1.246c-7.197,0-12.265,3.829-12.308,9.307
			c-0.047,4.052,3.615,6.312,6.378,7.661c2.837,1.38,3.785,2.262,3.775,3.5c-0.019,1.89-2.263,2.715-4.357,2.752
			c-3.662,0.058-5.786-0.989-7.483-1.779l-1.318,6.172c1.699,0.781,4.846,1.459,8.102,1.498
			C323.168,229.004,328.173,225.216,328.197,219.363 M347.205,228.559h6.738l-5.879-28.152h-6.22c-1.397,0-2.576,0.814-3.101,2.063
			l-10.922,26.09h7.645l1.518-4.204h9.344L347.205,228.559z M339.079,218.584l3.835-10.571l2.206,10.571H339.079z M308.441,200.405
			l-6.025,28.153h-7.285l6.027-28.153H308.441L308.441,200.405z"/>
	</g>
	<g display="inline">
		<path fill="#2B3C7A" d="M51,204.221c1.158-0.189,2.674-0.351,4.604-0.351c2.371,0,4.108,0.54,5.21,1.513
			c1.021,0.861,1.627,2.186,1.627,3.804c0,1.646-0.496,2.943-1.435,3.887c-1.267,1.322-3.335,1.997-5.679,1.997
			c-0.717,0-1.378-0.027-1.93-0.161v7.287H51V204.221z M53.398,212.992c0.524,0.135,1.186,0.189,1.985,0.189
			c2.895,0,4.66-1.377,4.66-3.888c0-2.401-1.737-3.562-4.384-3.562c-1.048,0-1.848,0.082-2.261,0.189V212.992z"/>
		<path fill="#2B3C7A" d="M77.246,215.557c0,4.83-3.418,6.936-6.645,6.936c-3.611,0-6.396-2.591-6.396-6.719
			c0-4.373,2.922-6.938,6.617-6.938C74.653,208.836,77.246,211.562,77.246,215.557z M66.658,215.691
			c0,2.861,1.682,5.021,4.053,5.021c2.315,0,4.054-2.133,4.054-5.074c0-2.214-1.131-5.021-3.998-5.021
			C67.898,210.617,66.658,213.208,66.658,215.691z"/>
		<path fill="#2B3C7A" d="M80.774,209.133l1.763,6.641c0.386,1.457,0.745,2.806,0.993,4.156h0.082
			c0.303-1.324,0.745-2.727,1.186-4.13l2.178-6.667h2.04l2.068,6.532c0.496,1.565,0.882,2.94,1.186,4.265h0.082
			c0.221-1.324,0.581-2.699,1.021-4.238l1.902-6.559h2.398l-4.3,13.063h-2.207l-2.039-6.235c-0.469-1.458-0.854-2.753-1.187-4.291
			h-0.053c-0.333,1.565-0.747,2.914-1.215,4.318l-2.15,6.208h-2.205l-4.026-13.063H80.774z"/>
		<path fill="#2B3C7A" d="M100.897,216.097c0.055,3.21,2.151,4.533,4.577,4.533c1.738,0,2.785-0.296,3.694-0.674l0.413,1.7
			c-0.854,0.376-2.316,0.809-4.438,0.809c-4.108,0-6.562-2.644-6.562-6.585c0-3.939,2.372-7.044,6.259-7.044
			c4.354,0,5.513,3.751,5.513,6.153c0,0.486-0.054,0.864-0.082,1.107H100.897z M108.01,214.396c0.028-1.512-0.634-3.857-3.364-3.857
			c-2.452,0-3.528,2.212-3.722,3.857H108.01z"/>
		<path fill="#2B3C7A" d="M113.331,213.208c0-1.538-0.027-2.861-0.109-4.075h2.122l0.083,2.563h0.111
			c0.606-1.753,2.066-2.86,3.693-2.86c0.276,0,0.469,0.027,0.688,0.082v2.239c-0.247-0.055-0.495-0.081-0.825-0.081
			c-1.71,0-2.922,1.268-3.255,3.051c-0.054,0.324-0.109,0.7-0.109,1.105v6.964h-2.399V213.208z"/>
		<path fill="#2B3C7A" d="M123.2,216.097c0.055,3.21,2.15,4.533,4.577,4.533c1.736,0,2.784-0.296,3.694-0.674l0.414,1.7
			c-0.855,0.376-2.317,0.809-4.439,0.809c-4.11,0-6.561-2.644-6.561-6.585c0-3.939,2.37-7.044,6.258-7.044
			c4.356,0,5.513,3.751,5.513,6.153c0,0.486-0.055,0.864-0.083,1.107H123.2z M130.313,214.396c0.028-1.512-0.634-3.857-3.364-3.857
			c-2.454,0-3.528,2.212-3.721,3.857H130.313z"/>
		<path fill="#2B3C7A" d="M147.129,203.033v15.788c0,1.161,0.028,2.482,0.111,3.375h-2.178l-0.111-2.267h-0.055
			c-0.745,1.456-2.371,2.563-4.55,2.563c-3.225,0-5.707-2.671-5.707-6.639c-0.027-4.345,2.728-7.018,5.982-7.018
			c2.042,0,3.418,0.946,4.026,1.996h0.055v-7.799H147.129z M144.703,214.451c0-0.298-0.027-0.703-0.111-1
			c-0.359-1.511-1.682-2.753-3.5-2.753c-2.509,0-3.997,2.16-3.997,5.046c0,2.647,1.322,4.833,3.942,4.833
			c1.627,0,3.114-1.054,3.555-2.834c0.083-0.324,0.111-0.648,0.111-1.025V214.451z"/>
		<path fill="#2B3C7A" d="M156.805,222.196c0.055-0.893,0.109-2.214,0.109-3.375v-15.788h2.399v8.204h0.055
			c0.855-1.455,2.399-2.401,4.55-2.401c3.307,0,5.652,2.699,5.623,6.666c0,4.669-3.003,6.99-5.981,6.99
			c-1.931,0-3.474-0.729-4.468-2.456h-0.083l-0.111,2.16H156.805z M159.313,216.96c0,0.296,0.055,0.594,0.11,0.864
			c0.468,1.646,1.875,2.779,3.64,2.779c2.535,0,4.052-2.024,4.052-5.021c0-2.617-1.377-4.858-3.97-4.858
			c-1.655,0-3.198,1.107-3.694,2.916c-0.056,0.27-0.138,0.595-0.138,0.971V216.96z"/>
		<path fill="#2B3C7A" d="M172.822,209.133l2.923,7.72c0.303,0.864,0.633,1.889,0.854,2.671h0.055
			c0.248-0.782,0.523-1.78,0.854-2.726l2.646-7.665h2.564l-3.639,9.311c-1.736,4.48-2.922,6.775-4.576,8.178
			c-1.187,1.026-2.372,1.432-2.978,1.539l-0.606-1.998c0.606-0.188,1.407-0.565,2.122-1.158c0.663-0.514,1.491-1.432,2.042-2.647
			c0.11-0.241,0.192-0.431,0.192-0.564c0-0.136-0.055-0.324-0.166-0.621l-4.934-12.038H172.822z"/>
		<path fill="#2B3C7A" d="M190.051,204.005h2.398v16.222h7.941v1.97h-10.339V204.005z"/>
		<path fill="#2B3C7A" d="M201.546,209.133l2.921,7.72c0.304,0.864,0.636,1.889,0.857,2.671h0.055
			c0.249-0.782,0.523-1.78,0.854-2.726l2.647-7.665h2.564l-3.64,9.311c-1.736,4.48-2.921,6.775-4.577,8.178
			c-1.185,1.026-2.371,1.432-2.978,1.539l-0.605-1.998c0.605-0.188,1.406-0.565,2.122-1.158c0.662-0.514,1.491-1.432,2.041-2.647
			c0.109-0.241,0.192-0.431,0.192-0.564c0-0.136-0.055-0.324-0.166-0.621l-4.935-12.038H201.546z"/>
		<path fill="#2B3C7A" d="M213.621,213.208c0-1.538-0.026-2.861-0.11-4.075h2.123l0.083,2.563h0.109
			c0.607-1.753,2.068-2.86,3.695-2.86c0.276,0,0.467,0.027,0.688,0.082v2.239c-0.248-0.055-0.495-0.081-0.826-0.081
			c-1.709,0-2.922,1.268-3.253,3.051c-0.055,0.324-0.11,0.7-0.11,1.105v6.964h-2.399V213.208z"/>
		<path fill="#2B3C7A" d="M229.528,222.196l-0.192-1.646h-0.083c-0.744,1.024-2.179,1.941-4.08,1.941
			c-2.703,0-4.08-1.862-4.08-3.751c0-3.158,2.867-4.885,8.022-4.858v-0.269c0-1.081-0.303-3.023-3.033-3.023
			c-1.241,0-2.537,0.378-3.473,0.971l-0.552-1.564c1.102-0.703,2.702-1.161,4.384-1.161c4.081,0,5.073,2.726,5.073,5.345v4.884
			c0,1.134,0.056,2.239,0.22,3.132H229.528z M229.169,215.53c-2.646-0.055-5.651,0.404-5.651,2.94c0,1.539,1.047,2.268,2.288,2.268
			c1.737,0,2.84-1.08,3.225-2.186c0.083-0.244,0.138-0.513,0.138-0.756V215.53z"/>
	</g>
	<g display="inline">
		<rect x="346.941" y="48.913" fill="#3675BA" width="12.028" height="11.789"/>
		<polyline fill="#2B3C7A" points="446.603,48.913 379.243,48.913 379.243,60.702 434.812,60.702 434.812,165.784 238.118,165.784 
			238.118,60.702 346.941,60.702 346.941,48.913 226.328,48.913 226.328,177.574 446.603,177.573 446.603,48.913 		"/>
		<path fill="#2B3C7A" d="M150.07,106.235c-2.685-4.698-8.727-7.671-15.057-7.671c-13.811-0.095-24.647,8.439-24.647,24.74
			c0,16.59,10.358,25.219,24.36,25.124c5.275-0.096,12.66-2.781,15.345-8.342l0.576,6.905h11.03V99.714h-11.222L150.07,106.235
			 M136.067,137.689c-7.768,0-14.002-5.371-14.002-14.385c0-9.014,6.234-14.288,14.002-14.288
			C154.482,109.016,154.482,137.689,136.067,137.689z M82.649,79.769c-10.549,0-21.1,0.096-31.649,0.096v67.126h12.661v-19.754
			h18.989C115.546,127.237,115.45,79.769,82.649,79.769z M82.649,115.633H63.661V91.851h18.989
			C98.762,91.851,98.858,115.633,82.649,115.633z M343.646,98.275c-15.345,0-27.329,10.357-30.388,24.742
			c-3.221,15.151,4.325,25.219,20.629,25.219c7.193,0,15.876-2.493,21.963-7.671l-5.91-7.384c-3.276,2.781-9.281,4.411-13.598,4.411
			c-8.249,0-12.435-4.219-11.957-10.069h36.924C367.269,108.057,359.471,98.275,343.646,98.275z M326.636,117.838
			c3.031-6.136,8.861-9.206,15.191-9.206c6.714,0,10.856,3.068,10.318,9.206H326.636z M402.866,98.947
			c-5.945,0-11.251,2.398-17.045,7.097l0.597-6.425h-10.452l-10.071,47.371H377.5l5.136-24.166
			c1.531-7.192,7.705-13.232,14.898-13.232c7.48,0,10.251,5.466,8.722,12.657l-5.259,24.741h11.7l5.281-24.836
			C421.138,107.291,413.991,98.947,402.866,98.947z M197.78,120.427l-4.892,13.042l-4.508-13.33l-7.192-20.426h-13.619
			l18.895,46.509l-8.823,20.52h12.851l28.868-67.029h-12.947L197.78,120.427z M315.512,85.81l1.265-5.945h-51.599l-2.529,11.891
			h33.185l-44.24,47.946l-1.549,7.29l52.462-0.001l2.548-11.986h-34.815L315.512,85.81z"/>
		<path fill="#3674B9" d="M464.649,81.991c1.196,31.386,16.349,60.555,41.204,79.47c24.918-18.965,40.09-48.228,41.214-79.47
			c-14.414-2.119-28.251-6.576-41.214-13.282C492.891,75.415,479.063,79.872,464.649,81.991z M532.03,100.414l-30.765,30.764
			l-17.002-17.003l6.486-6.486l10.516,10.517l24.279-24.278L532.03,100.414z"/>
	</g>
</g>
<g id="payzen_-_v2" display="none">
	<g display="inline">
		
			<linearGradient id="SVGID_2_" gradientUnits="userSpaceOnUse" x1="32.582" y1="294.9375" x2="29.9208" y2="286.768" gradientTransform="matrix(13.7931 0 0 -13.7931 -133.7578 4120.2031)">
			<stop  offset="0" style="stop-color:#222E72"/>
			<stop  offset="0.5916" style="stop-color:#40CBFF"/>
			<stop  offset="1" style="stop-color:#3CB792"/>
		</linearGradient>
		<path fill="url(#SVGID_2_)" stroke="#F1F1F1" stroke-width="0.1888" d="M232.031,50.165h135.422c3.594,0,6.51,2.917,6.51,6.513
			v88.544c0,3.595-2.916,6.511-6.51,6.511H232.031c-3.595,0-6.508-2.917-6.508-6.511V56.677
			C225.523,53.082,228.437,50.165,232.031,50.165z"/>
		<path fill="#FEFEFE" d="M281.058,99.406h20.449c-0.181-4.421-1.212-8.977-4.334-11.906c-3.722-3.488-10.242-4.782-16.066-4.782
			c-6.061,0-12.762,1.419-16.503,5.162c-3.226,3.224-3.926,8.406-3.926,13.067c0,4.881,1.368,10.559,4.866,13.827
			c3.72,3.482,9.751,4.406,15.563,4.406c5.651,0,11.771-1.046,15.47-4.348c3.689-3.299,4.964-8.856,4.964-13.885v-0.024h-20.483
			V99.406z M302.882,100.923v17.442h28.451v-0.023c4.161-0.229,7.476-3.982,7.476-8.588c0-4.615-3.314-8.607-7.476-8.837v0.006
			H302.882z M331.006,83.448c4.059,0,7.281,3.521,7.281,7.963c0,4.206-2.961,7.643-6.722,7.995h-28.684V83.422h27.226
			c0.17-0.019,0.364-0.006,0.557,0.008C330.782,83.441,330.9,83.448,331.006,83.448z"/>
	</g>
	<g display="inline">
		<path fill="#2B3C7A" d="M356.996,200.636c1.229-0.201,2.839-0.372,4.89-0.372c2.518,0,4.362,0.573,5.532,1.606
			c1.084,0.915,1.729,2.32,1.729,4.039c0,1.747-0.527,3.125-1.523,4.127c-1.346,1.404-3.542,2.12-6.031,2.12
			c-0.761,0-1.462-0.028-2.049-0.171v7.738h-2.547V200.636z M359.543,209.95c0.557,0.143,1.259,0.201,2.108,0.201
			c3.073,0,4.947-1.462,4.947-4.128c0-2.55-1.844-3.782-4.654-3.782c-1.113,0-1.962,0.087-2.401,0.201V209.95z"/>
		<path fill="#2B3C7A" d="M384.865,212.673c0,5.129-3.629,7.365-7.056,7.365c-3.834,0-6.792-2.752-6.792-7.135
			c0-4.644,3.103-7.366,7.026-7.366C382.113,205.537,384.865,208.431,384.865,212.673z M373.623,212.816
			c0,3.038,1.785,5.331,4.303,5.331c2.46,0,4.306-2.265,4.306-5.389c0-2.351-1.2-5.331-4.245-5.331
			C374.939,207.428,373.623,210.18,373.623,212.816z"/>
		<path fill="#2B3C7A" d="M388.612,205.852l1.871,7.052c0.411,1.547,0.793,2.979,1.056,4.413h0.088
			c0.321-1.406,0.79-2.895,1.259-4.385l2.312-7.08h2.168l2.195,6.937c0.526,1.662,0.937,3.122,1.259,4.528h0.086
			c0.235-1.406,0.617-2.866,1.085-4.5l2.02-6.965h2.547l-4.566,13.872h-2.344l-2.165-6.621c-0.498-1.548-0.906-2.923-1.259-4.557
			h-0.057c-0.354,1.662-0.793,3.095-1.29,4.586l-2.283,6.592h-2.341l-4.275-13.872H388.612z"/>
		<path fill="#2B3C7A" d="M409.98,213.246c0.059,3.409,2.283,4.814,4.859,4.814c1.846,0,2.957-0.314,3.923-0.716l0.438,1.806
			c-0.907,0.398-2.46,0.858-4.713,0.858c-4.362,0-6.968-2.808-6.968-6.992c0-4.184,2.519-7.479,6.646-7.479
			c4.624,0,5.854,3.982,5.854,6.533c0,0.517-0.058,0.918-0.087,1.176H409.98z M417.533,211.44c0.029-1.605-0.674-4.097-3.572-4.097
			c-2.604,0-3.746,2.35-3.952,4.097H417.533z"/>
		<path fill="#2B3C7A" d="M423.183,210.18c0-1.634-0.029-3.039-0.116-4.328h2.253l0.087,2.723h0.118
			c0.645-1.861,2.194-3.037,3.922-3.037c0.293,0,0.498,0.028,0.731,0.087v2.378c-0.263-0.059-0.526-0.086-0.877-0.086
			c-1.816,0-3.103,1.346-3.456,3.239c-0.057,0.344-0.114,0.743-0.114,1.174v7.395h-2.548V210.18z"/>
		<path fill="#2B3C7A" d="M433.663,213.246c0.058,3.409,2.282,4.814,4.858,4.814c1.844,0,2.957-0.314,3.923-0.716l0.439,1.806
			c-0.909,0.398-2.46,0.858-4.714,0.858c-4.364,0-6.967-2.808-6.967-6.992c0-4.184,2.518-7.479,6.645-7.479
			c4.626,0,5.854,3.982,5.854,6.533c0,0.517-0.058,0.918-0.089,1.176H433.663z M441.214,211.44c0.031-1.605-0.672-4.097-3.571-4.097
			c-2.605,0-3.745,2.35-3.951,4.097H441.214z"/>
		<path fill="#2B3C7A" d="M459.07,199.375v16.765c0,1.233,0.031,2.636,0.118,3.584h-2.313l-0.118-2.407H456.7
			c-0.791,1.546-2.519,2.722-4.831,2.722c-3.424,0-6.06-2.837-6.06-7.05c-0.029-4.613,2.897-7.451,6.353-7.451
			c2.168,0,3.629,1.005,4.274,2.119h0.058v-8.281H459.07z M456.494,211.499c0-0.316-0.028-0.746-0.117-1.062
			c-0.38-1.604-1.785-2.923-3.717-2.923c-2.663,0-4.243,2.293-4.243,5.357c0,2.812,1.402,5.132,4.185,5.132
			c1.729,0,3.308-1.119,3.775-3.009c0.089-0.345,0.117-0.688,0.117-1.089V211.499z"/>
		<path fill="#2B3C7A" d="M469.346,219.724c0.058-0.948,0.116-2.351,0.116-3.584v-16.765h2.548v8.712h0.058
			c0.908-1.545,2.547-2.55,4.83-2.55c3.512,0,6.002,2.866,5.971,7.078c0,4.957-3.188,7.423-6.35,7.423
			c-2.052,0-3.689-0.774-4.744-2.608h-0.089l-0.118,2.294H469.346z M472.01,214.163c0,0.314,0.058,0.631,0.116,0.918
			c0.497,1.748,1.99,2.951,3.865,2.951c2.692,0,4.302-2.149,4.302-5.331c0-2.779-1.463-5.159-4.215-5.159
			c-1.757,0-3.396,1.176-3.924,3.097c-0.058,0.286-0.145,0.632-0.145,1.03V214.163z"/>
		<path fill="#2B3C7A" d="M486.353,205.852l3.104,8.197c0.322,0.918,0.673,2.006,0.907,2.836h0.059
			c0.264-0.83,0.556-1.89,0.907-2.894l2.809-8.14h2.724l-3.864,9.887c-1.844,4.758-3.103,7.194-4.858,8.684
			c-1.262,1.09-2.52,1.521-3.163,1.634l-0.643-2.121c0.643-0.199,1.493-0.601,2.252-1.229c0.704-0.546,1.582-1.521,2.168-2.812
			c0.117-0.256,0.204-0.457,0.204-0.6c0-0.144-0.058-0.344-0.176-0.659l-5.238-12.783H486.353z"/>
		<path fill="#2B3C7A" d="M504.646,200.407h2.547v17.225h8.433v2.092h-10.979V200.407z"/>
		<path fill="#2B3C7A" d="M516.854,205.852l3.102,8.197c0.322,0.918,0.676,2.006,0.91,2.836h0.058
			c0.265-0.83,0.556-1.89,0.908-2.894l2.811-8.14h2.723l-3.865,9.887c-1.844,4.758-3.102,7.194-4.859,8.684
			c-1.259,1.09-2.518,1.521-3.163,1.634l-0.642-2.121c0.642-0.199,1.493-0.601,2.253-1.229c0.703-0.546,1.583-1.521,2.168-2.812
			c0.115-0.256,0.203-0.457,0.203-0.6c0-0.144-0.059-0.344-0.177-0.659l-5.239-12.783H516.854z"/>
		<path fill="#2B3C7A" d="M529.675,210.18c0-1.634-0.027-3.039-0.117-4.328h2.254l0.089,2.723h0.116
			c0.645-1.861,2.196-3.037,3.924-3.037c0.292,0,0.495,0.028,0.73,0.087v2.378c-0.262-0.059-0.525-0.086-0.877-0.086
			c-1.815,0-3.103,1.346-3.454,3.239c-0.059,0.344-0.118,0.743-0.118,1.174v7.395h-2.547V210.18z"/>
		<path fill="#2B3C7A" d="M546.565,219.724l-0.204-1.747h-0.089c-0.79,1.087-2.313,2.062-4.333,2.062
			c-2.87,0-4.331-1.978-4.331-3.983c0-3.354,3.044-5.187,8.519-5.159v-0.285c0-1.147-0.322-3.21-3.221-3.21
			c-1.318,0-2.694,0.401-3.688,1.03l-0.586-1.661c1.17-0.746,2.868-1.232,4.655-1.232c4.333,0,5.387,2.894,5.387,5.675v5.186
			c0,1.204,0.059,2.378,0.233,3.326H546.565z M546.186,212.646c-2.811-0.059-6.001,0.429-6.001,3.122
			c0,1.634,1.112,2.407,2.43,2.407c1.844,0,3.015-1.146,3.424-2.32c0.089-0.259,0.147-0.544,0.147-0.803V212.646z"/>
	</g>
	<g display="inline">
		<rect x="226.027" y="174.669" fill="#3675BA" width="7.114" height="6.972"/>
		<polyline fill="#2B3C7A" points="284.969,174.669 245.131,174.669 245.131,181.641 277.996,181.641 277.996,243.79 
			161.667,243.79 161.667,181.641 226.027,181.641 226.027,174.669 154.693,174.669 154.693,250.763 284.969,250.762 
			284.969,174.669 		"/>
		<path fill="#2B3C7A" d="M109.592,208.571c-1.587-2.779-5.161-4.537-8.905-4.537c-8.167-0.056-14.577,4.991-14.577,14.632
			c0,9.812,6.126,14.915,14.407,14.858c3.12-0.056,7.488-1.645,9.075-4.934l0.341,4.084h6.523v-27.96h-6.637L109.592,208.571
			 M101.311,227.174c-4.594,0-8.281-3.176-8.281-8.508c0-5.331,3.687-8.45,8.281-8.45
			C112.202,210.216,112.202,227.174,101.311,227.174z M69.718,192.918c-6.239,0-12.479,0.056-18.718,0.056v39.701h7.488v-11.684
			h11.23C89.174,220.991,89.117,192.918,69.718,192.918z M69.718,214.129h-11.23v-14.065h11.23
			C79.248,200.063,79.304,214.129,69.718,214.129z M224.078,203.863c-9.075,0-16.163,6.125-17.972,14.633
			c-1.905,8.961,2.559,14.915,12.201,14.915c4.254,0,9.39-1.474,12.989-4.536l-3.496-4.367c-1.938,1.645-5.489,2.608-8.042,2.608
			c-4.878,0-7.354-2.495-7.072-5.956h21.838C238.049,209.648,233.437,203.863,224.078,203.863z M214.018,215.434
			c1.793-3.63,5.241-5.445,8.985-5.445c3.971,0,6.42,1.814,6.103,5.445H214.018z M259.102,204.261
			c-3.516,0-6.654,1.418-10.081,4.197l0.353-3.801h-6.182l-5.956,28.017h6.864l3.038-14.292c0.905-4.253,4.557-7.826,8.811-7.826
			c4.424,0,6.063,3.233,5.158,7.485l-3.11,14.633h6.92l3.124-14.688C269.908,209.195,265.682,204.261,259.102,204.261z
			 M137.81,216.964l-2.893,7.714l-2.667-7.883l-4.254-12.08h-8.054l11.175,27.506l-5.218,12.137h7.6l17.073-39.643h-7.657
			L137.81,216.964z M207.438,196.49l0.748-3.517H177.67l-1.496,7.033H195.8l-26.165,28.356l-0.916,4.312l31.027-0.001l1.507-7.089
			h-20.59L207.438,196.49z"/>
		<path fill="#3674B9" d="M295.643,194.231c0.707,18.563,9.669,35.814,24.368,47.002c14.737-11.217,23.71-28.524,24.376-47.002
			c-8.524-1.252-16.708-3.888-24.376-7.854C312.345,190.344,304.166,192.979,295.643,194.231z M335.493,205.128l-18.195,18.194
			l-10.056-10.056l3.836-3.836l6.22,6.22l14.359-14.359L335.493,205.128z"/>
	</g>
	<g display="inline">
		<path fill="#FFFFFF" stroke="#AFAFAF" stroke-width="1.2926" stroke-miterlimit="10" d="M56.709,50.165h135.422
			c3.594,0,6.51,2.917,6.51,6.513v88.543c0,3.596-2.916,6.512-6.51,6.512H56.709c-3.596,0-6.509-2.916-6.509-6.512V56.677
			C50.201,53.081,53.114,50.165,56.709,50.165z"/>
		<g>
			<path fill="#1A2ADF" d="M106.875,83.738l-15.701,37.468h-10.25l-7.721-29.898c-0.476-1.846-0.881-2.517-2.307-3.299
				c-2.335-1.263-6.176-2.444-9.567-3.184l0.237-1.086h16.489c2.103,0,3.994,1.401,4.468,3.82l4.083,21.685l10.084-25.505h10.183
				V83.738z M147.02,108.968c0.046-9.884-13.676-10.422-13.577-14.843c0.027-1.351,1.305-2.779,4.108-3.139
				c1.391-0.184,5.219-0.321,9.558,1.672l1.701-7.942c-2.333-0.846-5.334-1.659-9.066-1.659c-9.579,0-16.322,5.097-16.381,12.386
				c-0.061,5.391,4.813,8.4,8.489,10.195c3.776,1.836,5.038,3.009,5.024,4.658c-0.025,2.515-3.011,3.612-5.799,3.663
				c-4.874,0.076-7.699-1.318-9.958-2.368l-1.755,8.214c2.262,1.039,6.449,1.941,10.782,1.994
				C140.326,121.799,146.987,116.756,147.02,108.968 M172.317,121.206h8.967l-7.824-37.467h-8.277c-1.86,0-3.429,1.083-4.127,2.745
				l-14.536,34.722h10.174l2.02-5.595h12.435L172.317,121.206z M161.501,107.932l5.104-14.069l2.936,14.069H161.501z
				 M120.728,83.738l-8.02,37.468h-9.695l8.021-37.468H120.728L120.728,83.738z"/>
		</g>
	</g>
	<g display="inline">
		<path fill="#FFFFFF" stroke="#AFAFAF" stroke-width="1.2926" stroke-miterlimit="10" d="M407.354,50.165h135.421
			c3.594,0,6.51,2.917,6.51,6.513v88.543c0,3.596-2.916,6.512-6.51,6.512H407.354c-3.595,0-6.509-2.916-6.509-6.512V56.677
			C400.846,53.081,403.76,50.165,407.354,50.165z"/>
		<g>
			<path fill="#E2001A" d="M452.168,134.051c18.272,0,33.096-14.838,33.096-33.109c0-18.272-14.823-33.094-33.096-33.094
				c-18.287,0-33.108,14.821-33.108,33.094C419.06,119.213,433.881,134.051,452.168,134.051L452.168,134.051L452.168,134.051z"/>
			<path fill="#F6A800" d="M500.325,134.051c18.271,0,33.093-14.838,33.093-33.109c0-18.272-14.822-33.094-33.093-33.094
				c-18.289,0-33.094,14.821-33.094,33.094C467.231,119.213,482.036,134.051,500.325,134.051L500.325,134.051L500.325,134.051z"/>
			<path fill="#EB690A" d="M476.223,123.65c-5.571-5.935-8.991-13.928-8.991-22.708c0-8.69,3.36-16.608,8.826-22.512l0,0
				l0.696,0.364l0,0c5.282,5.875,8.51,13.639,8.51,22.148c0,8.552-3.258,16.335-8.569,22.225l0,0L476.223,123.65L476.223,123.65z"/>
			<polygon fill="#FFFFFF" points="425.556,92.646 428.444,92.646 432.155,101.896 435.472,92.646 438.529,92.646 438.529,104.97 
				436.15,104.97 436.15,95.825 432.975,104.97 431.172,104.97 427.993,95.947 427.993,104.97 425.556,104.97 			"/>
			<polygon fill="#FFFFFF" points="450.701,104.97 450.701,95.538 448.67,95.538 448.67,104.97 			"/>
			<g>
				<polygon fill="#FFFFFF" points="464.264,104.97 464.264,92.813 462.13,92.813 462.13,104.97 				"/>
				<polygon fill="#FFFFFF" points="460.902,95.538 460.902,97.793 465.656,97.793 465.656,95.538 				"/>
			</g>
			<polygon fill="#FFFFFF" points="509.089,104.97 509.089,95.538 507.063,95.538 507.063,104.97 			"/>
			<polygon fill="#FFFFFF" points="527.409,104.97 527.409,93.176 525.38,93.176 525.38,104.97 			"/>
			<path fill="#FFFFFF" d="M481.462,95.538h-2.106v9.432h2.137v-6.237l0,0c0.499-1.014,1.997-1.226,2.24-1.226l0,0v-2.029l0,0
				c-0.499,0-2.212,0.378-2.271,1.301l0,0V95.538L481.462,95.538z"/>
			<path fill="#FFFFFF" d="M513.723,95.538h-2.119v9.432h2.149v-6.237l0,0c0.484-1.014,1.998-1.226,2.227-1.226l0,0v-2.029l0,0
				c-0.486,0-2.196,0.378-2.257,1.301l0,0V95.538L513.723,95.538z"/>
			<path fill="#FFFFFF" d="M457.06,98.233h2.073l0,0c0-1.65-1.061-2.665-2.802-2.665c-1.74,0-3.119,0.909-3.119,2.937
				c0,2.027,2.136,2.316,2.484,2.407c0.424,0.12,1.588,0.258,1.588,1.544c0,0.484-0.575,0.605-1.074,0.605
				c-0.484,0-0.982-0.377-0.982-0.938l0,0h-2.318l0,0c0,2.119,1.651,2.966,3.301,2.966c1.651,0,3.226-1.331,3.226-2.935
				c0-1.575-1.545-2.499-2.756-2.68c-1.832-0.258-1.65-1.846-0.59-1.846C457.09,97.627,457.028,98.067,457.06,98.233L457.06,98.233
				L457.06,98.233z"/>
			<path fill="#FFFFFF" d="M495.073,101.594c-0.76,0.952-1.924,1.558-3.226,1.558c-2.271,0-4.104-1.832-4.104-4.071
				c0-2.271,1.834-4.104,4.104-4.104c1.287,0,2.452,0.591,3.192,1.529l0,0h2.665l0,0c-0.983-2.331-3.27-3.86-5.857-3.86
				c-3.557,0-6.436,2.877-6.436,6.435c0,3.524,2.879,6.419,6.436,6.419c2.633,0,4.905-1.636,5.905-3.906l0,0H495.073
				L495.073,101.594z"/>
			<path d="M522.866,128.6c0-2.148,1.757-3.738,3.814-3.738c2.03,0,3.787,1.589,3.787,3.738c0,2.167-1.757,3.741-3.787,3.741
				C524.623,132.341,522.866,130.768,522.866,128.6L522.866,128.6L522.866,128.6z"/>
			<path fill="#FFFFFF" d="M525.881,130.768h-0.653v-4.316h1.651l0,0c1.015,0,1.515,0.363,1.515,1.225
				c0,0.772-0.484,1.106-1.107,1.18l0,0l1.227,1.911h-0.742l-1.134-1.878h-0.756V130.768L525.881,130.768z"/>
			<path d="M525.805,128.313v-1.302h1.407l0,0c0.604,0.499,0.772,0.726,0,1.302l0,0H525.805L525.805,128.313z"/>
			<path fill="#FFFFFF" d="M522.534,105.198c2.71,0,4.92-2.212,4.92-4.908c0-2.724-2.21-4.917-4.92-4.917v2.089
				c1.56,0,2.829,1.271,2.829,2.829c0,1.544-1.27,2.816-2.829,2.816V105.198z M522.534,105.198L522.534,105.198v-2.092l0,0l0,0l0,0
				c-1.56,0-2.832-1.272-2.832-2.816c0-1.557,1.272-2.829,2.832-2.829l0,0v-2.089l0,0c-2.711,0-4.923,2.194-4.923,4.917
				C517.611,102.985,519.823,105.198,522.534,105.198L522.534,105.198L522.534,105.198z"/>
			<path fill="#FFFFFF" d="M504.216,105.198c2.726,0,4.919-2.212,4.919-4.908c0-2.724-2.193-4.917-4.919-4.917l0,0v2.089l0,0
				c1.558,0,2.83,1.271,2.83,2.829c0,1.544-1.272,2.816-2.83,2.816l0,0l0,0l0,0V105.198L504.216,105.198L504.216,105.198
				L504.216,105.198z M504.216,95.373c-2.711,0-4.919,2.194-4.919,4.917c0,2.696,2.208,4.908,4.919,4.908v-2.089
				c-1.56,0-2.83-1.271-2.83-2.818c0-1.557,1.271-2.829,2.83-2.829V95.373z"/>
			<path fill="#FFFFFF" d="M472.182,101.26h4.8l0,0c0.015-0.135,0.029-0.287,0.029-0.423v-0.41
				c-0.074-2.193-1.452-4.889-4.829-4.918v2.285c1.15,0,2.287,0.529,2.287,1.575l0,0h-2.287V101.26L472.182,101.26z
				 M472.182,105.228c1.907-0.03,4.586-1.271,4.586-2.864l0,0h-2.556l0,0c0,0.381-0.985,0.73-2.03,0.712V105.228z M469.836,101.26
				h2.346v-1.892h-2.286l0,0l0,0c0-1.045,1.136-1.575,2.286-1.575v-2.285c-0.014,0-0.044,0-0.06,0c-3.059,0-4.725,2.542-4.74,5.024
				v0.093c0.046,2.347,1.545,4.603,4.71,4.603c0.03,0,0.061,0,0.09,0v-2.151C471.031,103.061,469.836,102.593,469.836,101.26
				L469.836,101.26L469.836,101.26z"/>
			<path fill="#FFFFFF" d="M445.84,105.198c2.709,0,4.921-2.212,4.921-4.908c0-2.724-2.212-4.917-4.921-4.917v2.089
				c1.559,0,2.83,1.271,2.83,2.829c0,1.544-1.271,2.816-2.83,2.816V105.198z M445.84,105.198L445.84,105.198v-2.092l0,0l0,0l0,0
				c-1.56,0-2.83-1.272-2.83-2.816c0-1.557,1.271-2.829,2.83-2.829l0,0v-2.089l0,0c-2.725,0-4.92,2.194-4.92,4.917
				C440.92,102.985,443.115,105.198,445.84,105.198L445.84,105.198L445.84,105.198z"/>
		</g>
	</g>
</g>
<g id="Paypal_1_">
	<g>
		<path fill="#139AD6" d="M436.46,117.866h-26.875c-1.582,0-3.162,1.582-3.951,3.162l-11.069,69.56c0,1.582,0.791,2.371,2.373,2.371
			h14.228c1.582,0,2.372-0.789,2.372-2.371l3.161-19.761c0-1.581,1.581-3.163,3.952-3.163h8.695
			c18.181,0,28.457-8.693,30.828-26.084c1.581-7.114,0-13.438-3.163-17.39C452.27,120.238,445.155,117.866,436.46,117.866
			 M439.622,143.951c-1.58,9.486-8.695,9.486-15.81,9.486h-4.742l3.162-18.181c0-0.791,0.79-1.582,2.37-1.582h1.582
			c4.742,0,9.485,0,11.857,3.162C439.622,137.627,439.622,139.999,439.622,143.951"/>
		<g>
			<path fill="#263B80" d="M242.797,117.866h-26.875c-1.582,0-3.162,1.582-3.953,3.162l-11.066,69.56
				c0,1.582,0.79,2.371,2.371,2.371h12.648c1.58,0,3.161-1.58,3.952-3.16l3.162-18.972c0-1.581,1.581-3.163,3.952-3.163h8.695
				c18.181,0,28.457-8.693,30.829-26.084c1.58-7.114,0-13.438-3.162-17.39C258.606,120.238,252.282,117.866,242.797,117.866
				 M245.959,143.951c-1.582,9.486-8.696,9.486-15.81,9.486h-3.952l3.162-18.181c0-0.791,0.791-1.582,2.371-1.582h1.582
				c4.742,0,9.485,0,11.856,3.162C245.959,137.627,246.75,139.999,245.959,143.951"/>
			<path fill="#263B80" d="M324.214,143.161h-12.647c-0.79,0-2.37,0.791-2.37,1.581l-0.792,3.953l-0.79-1.581
				c-3.161-3.953-8.694-5.534-15.018-5.534c-14.229,0-26.875,11.067-29.247,26.084c-1.582,7.906,0.79,15.021,4.742,19.762
				c3.953,4.744,9.486,6.324,16.601,6.324c11.857,0,18.18-7.113,18.18-7.113l-0.789,3.951c0,1.582,0.789,2.371,2.37,2.371h11.856
				c1.582,0,3.162-1.58,3.952-3.16l7.114-44.266C326.587,144.742,325.005,143.161,324.214,143.161 M306.035,168.455
				c-1.582,7.115-7.115,12.647-15.021,12.647c-3.952,0-7.113-1.58-8.693-3.161c-1.581-2.371-2.372-5.534-2.372-9.486
				c0.791-7.113,7.113-12.647,14.229-12.647c3.952,0,6.324,1.583,8.695,3.163C305.244,161.342,306.035,165.295,306.035,168.455"/>
		</g>
		<path fill="#139AD6" d="M517.088,143.161H504.44c-0.792,0-2.372,0.791-2.372,1.581l-0.79,3.953l-0.79-1.581
			c-3.163-3.953-8.695-5.534-15.02-5.534c-14.229,0-26.876,11.067-29.247,26.084c-1.581,7.906,0.789,15.021,4.741,19.762
			c3.954,4.744,9.487,6.324,16.601,6.324c11.857,0,18.182-7.113,18.182-7.113l-0.792,3.951c0,1.582,0.792,2.371,2.372,2.371h11.856
			c1.582,0,3.163-1.58,3.954-3.16l7.113-44.266C519.458,144.742,518.668,143.161,517.088,143.161 M498.906,168.455
			c-1.581,7.115-7.113,12.647-15.019,12.647c-3.952,0-7.114-1.58-8.694-3.161c-1.582-2.371-2.372-5.534-2.372-9.486
			c0.79-7.113,7.114-12.647,14.229-12.647c3.951,0,6.323,1.583,8.695,3.163C498.906,161.342,499.697,165.295,498.906,168.455"/>
		<path fill="#263B80" d="M392.986,143.161h-13.439c-1.582,0-2.372,0.791-3.161,1.581l-17.391,26.876l-7.904-25.295
			c-0.791-1.581-1.582-2.372-3.952-2.372h-12.647c-1.582,0-2.372,1.582-2.372,3.162l14.229,41.893l-13.438,18.973
			c-0.79,1.58,0,3.953,1.582,3.953h12.647c1.58,0,2.37-0.791,3.161-1.582l43.476-62.446
			C396.146,145.533,394.564,143.161,392.986,143.161"/>
		<path fill="#139AD6" d="M532.105,120.238l-11.065,71.141c0,1.58,0.789,2.371,2.371,2.371h11.065c1.58,0,3.163-1.58,3.952-3.162
			l11.067-69.56c0-1.581-0.791-2.371-2.372-2.371h-12.647C533.688,117.866,532.896,118.657,532.105,120.238"/>
		<path fill="#263B80" d="M142.408,94.152c-5.532-6.324-15.808-9.486-30.037-9.486H72.847c-2.371,0-4.742,2.372-5.532,4.743
			l-15.81,103.549c0,2.373,1.581,3.953,3.162,3.953h24.503l6.324-38.732v1.58c0.791-2.369,3.162-4.742,5.534-4.742h11.856
			c22.924,0,40.314-9.485,45.847-35.57c0-0.791,0-1.582,0-2.372c-0.791,0-0.791,0,0,0C149.523,106.8,147.941,100.476,142.408,94.152
			"/>
		<path fill="#139AD6" d="M147.941,117.076L147.941,117.076c0,0.79,0,1.581,0,2.372c-5.534,26.875-22.923,35.57-45.847,35.57H90.238
			c-2.372,0-4.744,2.373-5.534,4.742L76.8,207.979c0,1.58,0.791,3.162,3.162,3.162h20.552c2.371,0,4.743-1.582,4.743-3.951v-0.791
			l3.952-24.505v-1.582c0-2.37,2.372-3.952,4.744-3.952h3.162c19.762,0,35.57-7.904,39.523-31.618
			c1.581-9.485,0.79-18.18-3.953-23.714C151.894,119.447,150.313,117.866,147.941,117.076"/>
		<path fill="#232C65" d="M142.408,114.704c-0.79,0-1.58-0.79-2.371-0.79c-0.791,0-1.581,0-2.371-0.791
			c-3.162-0.791-6.324-0.791-10.276-0.791H96.562c-0.791,0-1.581,0-2.372,0.791c-1.581,0.791-2.372,2.372-2.372,3.952l-6.324,41.104
			v1.58c0.791-2.369,3.162-4.742,5.534-4.742h11.856c22.924,0,40.314-9.485,45.847-35.57c0-0.791,0-1.582,0.791-2.372
			c-1.582-0.791-2.372-1.581-3.953-1.581C143.199,114.704,143.199,114.704,142.408,114.704"/>
	</g>
</g>
<g id="Paypal_-_4X" display="none">
	<g display="inline">
		<g>
			<g>
				<linearGradient id="SVGID_3_" gradientUnits="userSpaceOnUse" x1="50.2417" y1="124.4121" x2="273.6909" y2="124.4121">
					<stop  offset="0" style="stop-color:#03B5F6"/>
					<stop  offset="0.9845" style="stop-color:#008EE5"/>
				</linearGradient>
				<path fill="url(#SVGID_3_)" d="M273.677,85.261c0-3.97-3.584-7.461-8.108-7.461c0,0-54.102-0.042-58.72-0.042H96.897
					c-25.767,0-46.655,20.888-46.655,46.654c0,25.766,20.889,46.654,46.655,46.654h130.396c24.113,0,43.952-18.295,46.398-41.76
					C273.691,124.89,273.677,85.261,273.677,85.261z"/>
				<g>
					<path fill="#FFFFFF" d="M158.48,139.427h-5.396v9.485h-13.071v-9.485h-19.54v-9.72l20.377-29.795h12.233v29.627h5.396V139.427z
						 M140.013,129.539v-5.697c0-1.071,0.039-2.518,0.117-4.34c0.078-1.82,0.139-2.775,0.184-2.865h-0.368
						c-0.76,1.721-1.621,3.33-2.581,4.827l-5.43,8.075H140.013z"/>
					<path fill="#FFFFFF" d="M208.954,148.912h-15.316l-9.552-15.317l-9.452,15.317h-14.981l16.255-25.07l-15.283-23.93h14.68
						l8.848,15.149l8.513-15.149h15.116l-15.518,24.969L208.954,148.912z"/>
				</g>
			</g>
			<g>
				<path fill="#139AD6" d="M469.335,91.057h-19.062c-1.12,0-2.241,1.122-2.802,2.243l-7.849,49.33c0,1.123,0.56,1.682,1.682,1.682
					h10.09c1.122,0,1.683-0.559,1.683-1.682l2.243-14.013c0-1.122,1.119-2.243,2.802-2.243h6.166
					c12.894,0,20.181-6.165,21.862-18.499c1.122-5.045,0-9.529-2.243-12.332C480.546,92.739,475.5,91.057,469.335,91.057
					 M471.577,109.557c-1.121,6.728-6.167,6.728-11.212,6.728h-3.364l2.243-12.894c0-0.561,0.56-1.122,1.681-1.122h1.122
					c3.363,0,6.727,0,8.409,2.243C471.577,105.072,471.577,106.754,471.577,109.557"/>
				<g>
					<path fill="#263B80" d="M331.993,91.057h-19.06c-1.122,0-2.242,1.122-2.804,2.243l-7.849,49.33
						c0,1.123,0.561,1.682,1.683,1.682h8.97c1.12,0,2.241-1.121,2.804-2.241l2.241-13.453c0-1.122,1.121-2.243,2.802-2.243h6.167
						c12.893,0,20.182-6.165,21.862-18.499c1.12-5.045,0-9.529-2.242-12.332C343.204,92.739,338.72,91.057,331.993,91.057
						 M334.234,109.557c-1.12,6.728-6.166,6.728-11.212,6.728h-2.802l2.241-12.894c0-0.561,0.561-1.122,1.682-1.122h1.122
						c3.363,0,6.728,0,8.409,2.243C334.234,105.072,334.795,106.754,334.234,109.557"/>
					<path fill="#263B80" d="M389.731,108.996h-8.97c-0.561,0-1.681,0.561-1.681,1.121l-0.563,2.804l-0.56-1.121
						c-2.241-2.804-6.165-3.925-10.65-3.925c-10.091,0-19.059,7.847-20.741,18.499c-1.121,5.606,0.562,10.653,3.362,14.014
						c2.804,3.365,6.728,4.485,11.773,4.485c8.409,0,12.894-5.045,12.894-5.045l-0.56,2.802c0,1.123,0.56,1.682,1.681,1.682h8.407
						c1.122,0,2.242-1.121,2.804-2.241l5.045-31.393C391.414,110.117,390.292,108.996,389.731,108.996 M376.841,126.935
						c-1.123,5.046-5.047,8.97-10.654,8.97c-2.803,0-5.044-1.12-6.165-2.242c-1.121-1.682-1.682-3.924-1.682-6.728
						c0.561-5.045,5.044-8.969,10.091-8.969c2.803,0,4.483,1.122,6.166,2.243C376.278,121.89,376.841,124.693,376.841,126.935"/>
				</g>
				<path fill="#139AD6" d="M526.514,108.996h-8.971c-0.562,0-1.682,0.561-1.682,1.121l-0.56,2.804l-0.562-1.121
					c-2.243-2.804-6.167-3.925-10.649-3.925c-10.093,0-19.062,7.847-20.743,18.499c-1.121,5.606,0.56,10.653,3.363,14.014
					c2.804,3.365,6.728,4.485,11.772,4.485c8.409,0,12.893-5.045,12.893-5.045l-0.562,2.802c0,1.123,0.562,1.682,1.683,1.682h8.409
					c1.122,0,2.243-1.121,2.804-2.241l5.045-31.393C528.194,110.117,527.635,108.996,526.514,108.996 M513.618,126.935
					c-1.121,5.046-5.045,8.97-10.649,8.97c-2.804,0-5.045-1.12-6.166-2.242c-1.121-1.682-1.683-3.924-1.683-6.728
					c0.562-5.045,5.045-8.969,10.089-8.969c2.804,0,4.486,1.122,6.167,2.243C513.618,121.89,514.18,124.693,513.618,126.935"/>
				<path fill="#263B80" d="M438.503,108.996h-9.53c-1.123,0-1.683,0.561-2.242,1.121l-12.333,19.061l-5.605-17.938
					c-0.561-1.122-1.122-1.683-2.802-1.683h-8.97c-1.123,0-1.684,1.121-1.684,2.243l10.091,29.709l-9.53,13.454
					c-0.561,1.121,0,2.805,1.123,2.805h8.97c1.119,0,1.68-0.563,2.241-1.123l30.831-44.284
					C440.745,110.678,439.623,108.996,438.503,108.996"/>
				<path fill="#139AD6" d="M537.162,92.739l-7.846,50.451c0,1.121,0.56,1.683,1.681,1.683h7.847c1.12,0,2.243-1.12,2.804-2.243
					l7.849-49.33c0-1.121-0.561-1.682-1.682-1.682h-8.971C538.286,91.057,537.724,91.618,537.162,92.739"/>
			</g>
		</g>
		<g>
			<path fill="#969696" d="M72.877,193.303c0,3.081-1.053,5.447-3.159,7.1c-2.105,1.652-5.041,2.479-8.805,2.479h-2.05
				l-2.143,10.193h-4.417l5.758-27.244h6.224c2.845,0,4.988,0.624,6.429,1.872C72.157,188.951,72.877,190.817,72.877,193.303z
				 M59.666,199.135h1.751c2.211,0,3.923-0.493,5.134-1.481c1.211-0.987,1.817-2.388,1.817-4.202c0-1.354-0.363-2.341-1.09-2.963
				c-0.727-0.621-1.842-0.932-3.345-0.932h-2.217L59.666,199.135z"/>
			<path fill="#969696" d="M80.313,213.447c-1.752,0-3.137-0.631-4.156-1.892c-1.019-1.261-1.528-3.034-1.528-5.32
				c0-2.51,0.432-4.857,1.295-7.044c0.863-2.187,2.053-3.917,3.568-5.19s3.18-1.91,4.995-1.91c1.205,0,2.242,0.283,3.112,0.849
				s1.547,1.388,2.031,2.469h0.187l1.155-2.944h3.354l-4.397,20.61h-3.392l0.391-3.279h-0.112
				C84.854,212.229,82.686,213.447,80.313,213.447z M81.916,209.906c1.019,0,2.019-0.481,3-1.444s1.789-2.252,2.423-3.866
				c0.633-1.615,0.95-3.38,0.95-5.293c0-1.093-0.292-1.972-0.876-2.637c-0.584-0.664-1.348-0.997-2.292-0.997
				c-1.056,0-2.05,0.479-2.981,1.435c-0.932,0.957-1.677,2.259-2.236,3.904c-0.559,1.646-0.838,3.352-0.838,5.115
				c0,1.268,0.251,2.215,0.754,2.842C80.322,209.593,81.021,209.906,81.916,209.906z"/>
			<path fill="#969696" d="M100.252,213.074h-4.398l4.398-20.61h4.379L100.252,213.074z M101.128,187.396
				c0-0.845,0.242-1.528,0.727-2.05c0.484-0.522,1.167-0.783,2.05-0.783c0.658,0,1.192,0.165,1.603,0.494s0.615,0.829,0.615,1.5
				c0,0.882-0.249,1.578-0.745,2.087c-0.497,0.51-1.149,0.764-1.957,0.764c-0.659,0-1.206-0.161-1.64-0.484
				C101.345,188.601,101.128,188.091,101.128,187.396z"/>
			<path fill="#969696" d="M115.011,213.447c-2.447,0-4.357-0.689-5.73-2.068c-1.373-1.38-2.06-3.305-2.06-5.777
				c0-2.46,0.481-4.749,1.444-6.867s2.267-3.755,3.914-4.91c1.646-1.155,3.488-1.733,5.525-1.733c2,0,3.556,0.451,4.668,1.352
				c1.112,0.9,1.668,2.177,1.668,3.829c0,2.262-1.035,4.028-3.103,5.302s-5.016,1.91-8.842,1.91h-0.801l-0.037,0.578v0.54
				c0,1.379,0.351,2.46,1.053,3.242c0.702,0.783,1.749,1.175,3.14,1.175c0.895,0,1.782-0.118,2.665-0.354
				c0.882-0.236,1.926-0.64,3.131-1.211v3.484c-1.193,0.547-2.289,0.935-3.289,1.165
				C117.356,213.332,116.241,213.447,115.011,213.447z M117.844,195.445c-1.192,0-2.314,0.534-3.363,1.603
				c-1.05,1.068-1.805,2.479-2.264,4.23h0.54c2.335,0,4.162-0.332,5.479-0.997c1.316-0.664,1.975-1.605,1.975-2.823
				c0-0.634-0.199-1.127-0.596-1.481C119.216,195.622,118.626,195.445,117.844,195.445z"/>
			<path fill="#969696" d="M140.542,192.091c2.733,0,4.311,1.46,4.733,4.38h0.149c0.932-1.441,1.991-2.531,3.177-3.271
				c1.186-0.739,2.419-1.109,3.699-1.109c1.652,0,2.91,0.476,3.773,1.426c0.863,0.95,1.295,2.289,1.295,4.016
				c0,0.796-0.137,1.92-0.41,3.373l-2.609,12.169h-4.379l2.665-12.522c0.236-1.181,0.354-2.007,0.354-2.479
				c0-1.603-0.752-2.404-2.255-2.404c-1.342,0-2.594,0.771-3.755,2.311c-1.162,1.541-2.01,3.585-2.544,6.131l-1.882,8.964h-4.379
				l2.665-12.522c0.211-1.019,0.317-1.808,0.317-2.367c0-1.677-0.727-2.516-2.18-2.516c-1.367,0-2.631,0.789-3.792,2.367
				c-1.162,1.577-2.022,3.677-2.581,6.298l-1.826,8.74h-4.398l4.398-20.61h3.429l-0.392,3.82h0.168
				C135.82,193.488,138.007,192.091,140.542,192.091z"/>
			<path fill="#969696" d="M168.941,213.447c-2.447,0-4.357-0.689-5.73-2.068c-1.373-1.38-2.06-3.305-2.06-5.777
				c0-2.46,0.481-4.749,1.444-6.867s2.267-3.755,3.914-4.91c1.646-1.155,3.488-1.733,5.525-1.733c2,0,3.556,0.451,4.668,1.352
				c1.112,0.9,1.668,2.177,1.668,3.829c0,2.262-1.035,4.028-3.103,5.302s-5.016,1.91-8.842,1.91h-0.801l-0.037,0.578v0.54
				c0,1.379,0.351,2.46,1.053,3.242c0.702,0.783,1.749,1.175,3.14,1.175c0.895,0,1.782-0.118,2.665-0.354
				c0.882-0.236,1.926-0.64,3.131-1.211v3.484c-1.193,0.547-2.289,0.935-3.289,1.165
				C171.286,213.332,170.171,213.447,168.941,213.447z M171.774,195.445c-1.192,0-2.314,0.534-3.363,1.603
				c-1.05,1.068-1.805,2.479-2.264,4.23h0.54c2.335,0,4.162-0.332,5.479-0.997c1.316-0.664,1.975-1.605,1.975-2.823
				c0-0.634-0.199-1.127-0.596-1.481C173.146,195.622,172.557,195.445,171.774,195.445z"/>
			<path fill="#969696" d="M192.515,213.074l2.646-12.522c0.224-1.118,0.335-1.932,0.335-2.441c0-1.628-0.801-2.441-2.404-2.441
				c-0.895,0-1.777,0.354-2.646,1.063s-1.652,1.729-2.348,3.065c-0.696,1.336-1.218,2.848-1.565,4.537l-1.826,8.74h-4.398
				l4.398-20.61h3.429l-0.392,3.82h0.168c1.031-1.466,2.093-2.531,3.187-3.196c1.093-0.664,2.28-0.997,3.559-0.997
				c1.665,0,2.954,0.473,3.867,1.417s1.37,2.285,1.37,4.024c0,0.857-0.143,1.982-0.429,3.373l-2.553,12.169H192.515z"/>
			<path fill="#969696" d="M210.423,209.906c0.845,0,1.783-0.192,2.814-0.578v3.317c-0.435,0.212-1.025,0.397-1.771,0.56
				c-0.745,0.161-1.491,0.242-2.236,0.242c-3.404,0-5.106-1.534-5.106-4.604c0-0.708,0.1-1.521,0.298-2.44l2.255-10.622h-3.019
				l0.392-2.05l3.541-1.528l2.404-4.323h2.721l-0.969,4.584h5.199l-0.727,3.317h-5.162l-2.273,10.659
				c-0.162,0.683-0.242,1.255-0.242,1.714c0,0.534,0.155,0.96,0.466,1.276C209.317,209.748,209.789,209.906,210.423,209.906z"/>
			<path fill="#969696" d="M235.413,213.447c-2.447,0-4.357-0.689-5.73-2.068c-1.373-1.38-2.06-3.305-2.06-5.777
				c0-2.46,0.481-4.749,1.444-6.867s2.267-3.755,3.914-4.91c1.646-1.155,3.488-1.733,5.525-1.733c2,0,3.556,0.451,4.668,1.352
				c1.112,0.9,1.668,2.177,1.668,3.829c0,2.262-1.035,4.028-3.103,5.302s-5.016,1.91-8.842,1.91h-0.801l-0.037,0.578v0.54
				c0,1.379,0.351,2.46,1.053,3.242c0.702,0.783,1.749,1.175,3.14,1.175c0.895,0,1.782-0.118,2.665-0.354
				c0.882-0.236,1.926-0.64,3.131-1.211v3.484c-1.193,0.547-2.289,0.935-3.289,1.165
				C237.757,213.332,236.643,213.447,235.413,213.447z M238.245,195.445c-1.192,0-2.314,0.534-3.363,1.603
				c-1.05,1.068-1.805,2.479-2.264,4.23h0.54c2.335,0,4.162-0.332,5.479-0.997c1.316-0.664,1.975-1.605,1.975-2.823
				c0-0.634-0.199-1.127-0.596-1.481C239.618,195.622,239.028,195.445,238.245,195.445z"/>
			<path fill="#969696" d="M258.986,213.074l2.646-12.522c0.224-1.118,0.335-1.932,0.335-2.441c0-1.628-0.801-2.441-2.404-2.441
				c-0.895,0-1.777,0.354-2.646,1.063s-1.652,1.729-2.348,3.065c-0.696,1.336-1.218,2.848-1.565,4.537l-1.826,8.74h-4.398
				l4.398-20.61h3.429l-0.392,3.82h0.168c1.031-1.466,2.093-2.531,3.187-3.196c1.093-0.664,2.28-0.997,3.559-0.997
				c1.665,0,2.954,0.473,3.867,1.417s1.37,2.285,1.37,4.024c0,0.857-0.143,1.982-0.429,3.373l-2.553,12.169H258.986z"/>
			<path fill="#969696" d="M297.709,213.074h-4.771l-3.578-11.032l-8.162,11.032h-4.938l10.92-14.349l-4.659-12.896h4.584
				l3.317,10.063l7.491-10.063h4.957l-10.268,13.23L297.709,213.074z"/>
			<path fill="#969696" d="M308.276,222.242c-1.118,0-2.044-0.143-2.777-0.428v-3.541c0.796,0.248,1.504,0.373,2.125,0.373
				c1.665,0,2.764-1.274,3.298-3.82l4.044-19.045h-3.335l0.391-1.976l3.615-1.416l0.392-1.715c0.547-2.46,1.382-4.208,2.507-5.246
				c1.124-1.037,2.717-1.556,4.779-1.556c1.429,0,2.739,0.268,3.933,0.802l-1.137,3.279c-0.92-0.348-1.765-0.521-2.535-0.521
				c-0.856,0-1.544,0.267-2.059,0.801c-0.516,0.534-0.91,1.41-1.184,2.628l-0.335,1.603h4.267l-0.689,3.317h-4.268l-4.155,19.622
				c-0.497,2.349-1.311,4.075-2.441,5.181C311.581,221.689,310.103,222.242,308.276,222.242z"/>
			<path fill="#969696" d="M342.881,200.179c0,2.51-0.454,4.792-1.36,6.849c-0.907,2.056-2.152,3.634-3.736,4.733
				s-3.407,1.648-5.47,1.648c-2.385,0-4.28-0.711-5.684-2.133c-1.404-1.423-2.105-3.357-2.105-5.806
				c0-2.472,0.443-4.739,1.332-6.802c0.889-2.062,2.134-3.668,3.736-4.816c1.603-1.149,3.454-1.725,5.554-1.725
				c2.422,0,4.316,0.721,5.684,2.162C342.197,195.731,342.881,197.694,342.881,200.179z M338.464,199.992
				c0-1.329-0.305-2.369-0.913-3.121s-1.479-1.128-2.608-1.128c-1.155,0-2.189,0.444-3.103,1.333s-1.622,2.094-2.125,3.615
				s-0.755,3.146-0.755,4.873c0,1.379,0.308,2.435,0.923,3.168s1.524,1.1,2.729,1.1c1.118,0,2.125-0.423,3.02-1.268
				s1.59-2.028,2.087-3.55S338.464,201.818,338.464,199.992z"/>
			<path fill="#969696" d="M349.925,213.074h-4.397l4.397-20.61h4.38L349.925,213.074z M350.801,187.396
				c0-0.845,0.242-1.528,0.727-2.05c0.485-0.522,1.168-0.783,2.05-0.783c0.659,0,1.193,0.165,1.604,0.494
				c0.409,0.329,0.614,0.829,0.614,1.5c0,0.882-0.248,1.578-0.745,2.087c-0.497,0.51-1.149,0.764-1.957,0.764
				c-0.658,0-1.205-0.161-1.64-0.484C351.019,188.601,350.801,188.091,350.801,187.396z"/>
			<path fill="#969696" d="M369.715,206.738c0,2.149-0.732,3.805-2.198,4.966c-1.467,1.162-3.504,1.743-6.112,1.743
				c-2.361,0-4.361-0.416-6.001-1.249v-3.783c1.901,1.118,3.839,1.678,5.814,1.678c1.205,0,2.18-0.249,2.926-0.745
				c0.745-0.497,1.118-1.175,1.118-2.031c0-0.634-0.215-1.178-0.644-1.631s-1.308-1.06-2.637-1.817
				c-1.553-0.832-2.649-1.68-3.289-2.543s-0.96-1.886-0.96-3.065c0-1.926,0.665-3.436,1.994-4.528
				c1.329-1.094,3.125-1.641,5.386-1.641c2.435,0,4.584,0.522,6.448,1.565l-1.417,3.28c-1.739-0.944-3.392-1.417-4.957-1.417
				c-0.906,0-1.643,0.205-2.208,0.615s-0.848,0.981-0.848,1.715c0,0.559,0.205,1.056,0.615,1.49
				c0.409,0.436,1.248,0.994,2.516,1.678c1.304,0.733,2.229,1.36,2.776,1.882s0.963,1.09,1.248,1.705
				C369.572,205.22,369.715,205.931,369.715,206.738z"/>
			<path fill="#969696" d="M396.811,206.738c0,2.149-0.732,3.805-2.198,4.966c-1.467,1.162-3.504,1.743-6.112,1.743
				c-2.361,0-4.361-0.416-6.001-1.249v-3.783c1.901,1.118,3.839,1.678,5.814,1.678c1.205,0,2.18-0.249,2.926-0.745
				c0.745-0.497,1.118-1.175,1.118-2.031c0-0.634-0.215-1.178-0.644-1.631s-1.308-1.06-2.637-1.817
				c-1.553-0.832-2.649-1.68-3.289-2.543s-0.96-1.886-0.96-3.065c0-1.926,0.665-3.436,1.994-4.528
				c1.329-1.094,3.125-1.641,5.386-1.641c2.435,0,4.584,0.522,6.448,1.565l-1.417,3.28c-1.739-0.944-3.392-1.417-4.957-1.417
				c-0.906,0-1.643,0.205-2.208,0.615s-0.848,0.981-0.848,1.715c0,0.559,0.205,1.056,0.615,1.49
				c0.409,0.436,1.248,0.994,2.516,1.678c1.304,0.733,2.229,1.36,2.776,1.882s0.963,1.09,1.248,1.705
				C396.668,205.22,396.811,205.931,396.811,206.738z"/>
			<path fill="#969696" d="M406.855,213.447c-1.752,0-3.138-0.631-4.156-1.892s-1.527-3.034-1.527-5.32
				c0-2.51,0.432-4.857,1.295-7.044s2.053-3.917,3.568-5.19s3.181-1.91,4.994-1.91c1.205,0,2.242,0.283,3.112,0.849
				c0.869,0.565,1.547,1.388,2.031,2.469h0.187l1.155-2.944h3.354l-4.398,20.61h-3.392l0.392-3.279h-0.111
				C411.396,212.229,409.229,213.447,406.855,213.447z M408.458,209.906c1.019,0,2.019-0.481,3-1.444s1.789-2.252,2.423-3.866
				c0.634-1.615,0.95-3.38,0.95-5.293c0-1.093-0.292-1.972-0.876-2.637c-0.584-0.664-1.348-0.997-2.292-0.997
				c-1.056,0-2.05,0.479-2.981,1.435c-0.932,0.957-1.677,2.259-2.236,3.904c-0.559,1.646-0.839,3.352-0.839,5.115
				c0,1.268,0.252,2.215,0.755,2.842C406.864,209.593,407.563,209.906,408.458,209.906z"/>
			<path fill="#969696" d="M434.604,213.074l2.646-12.522c0.224-1.118,0.336-1.932,0.336-2.441c0-1.628-0.802-2.441-2.404-2.441
				c-0.895,0-1.776,0.354-2.646,1.063c-0.87,0.708-1.652,1.729-2.349,3.065c-0.695,1.336-1.218,2.848-1.565,4.537l-1.826,8.74
				h-4.397l4.397-20.61h3.429l-0.391,3.82H430c1.031-1.466,2.094-2.531,3.188-3.196c1.093-0.664,2.279-0.997,3.559-0.997
				c1.665,0,2.954,0.473,3.867,1.417s1.369,2.285,1.369,4.024c0,0.857-0.143,1.982-0.429,3.373l-2.553,12.169H434.604z"/>
			<path fill="#969696" d="M458.604,206.738c0,2.149-0.732,3.805-2.198,4.966c-1.467,1.162-3.504,1.743-6.112,1.743
				c-2.361,0-4.361-0.416-6.001-1.249v-3.783c1.901,1.118,3.839,1.678,5.814,1.678c1.205,0,2.18-0.249,2.926-0.745
				c0.745-0.497,1.118-1.175,1.118-2.031c0-0.634-0.215-1.178-0.644-1.631s-1.308-1.06-2.637-1.817
				c-1.553-0.832-2.649-1.68-3.289-2.543s-0.96-1.886-0.96-3.065c0-1.926,0.665-3.436,1.994-4.528
				c1.329-1.094,3.125-1.641,5.386-1.641c2.435,0,4.584,0.522,6.448,1.565l-1.417,3.28c-1.739-0.944-3.392-1.417-4.957-1.417
				c-0.906,0-1.643,0.205-2.208,0.615s-0.848,0.981-0.848,1.715c0,0.559,0.205,1.056,0.615,1.49
				c0.409,0.436,1.248,0.994,2.516,1.678c1.304,0.733,2.229,1.36,2.776,1.882s0.963,1.09,1.248,1.705
				C458.462,205.22,458.604,205.931,458.604,206.738z"/>
			<path fill="#969696" d="M469.712,222.242c-1.118,0-2.044-0.143-2.777-0.428v-3.541c0.796,0.248,1.504,0.373,2.125,0.373
				c1.665,0,2.764-1.274,3.298-3.82l4.044-19.045h-3.335l0.391-1.976l3.615-1.416l0.392-1.715c0.547-2.46,1.382-4.208,2.507-5.246
				c1.124-1.037,2.717-1.556,4.779-1.556c1.429,0,2.739,0.268,3.933,0.802l-1.137,3.279c-0.92-0.348-1.765-0.521-2.535-0.521
				c-0.856,0-1.544,0.267-2.059,0.801c-0.516,0.534-0.91,1.41-1.184,2.628l-0.335,1.603h4.267l-0.689,3.317h-4.268l-4.155,19.622
				c-0.497,2.349-1.311,4.075-2.441,5.181C473.017,221.689,471.538,222.242,469.712,222.242z"/>
			<path fill="#969696" d="M499.062,192.091c0.77,0,1.44,0.075,2.012,0.224l-0.95,4.081c-0.671-0.174-1.304-0.261-1.9-0.261
				c-1.565,0-2.963,0.702-4.193,2.105c-1.229,1.404-2.087,3.243-2.571,5.517l-1.976,9.317h-4.397l4.397-20.61h3.429l-0.391,3.82
				h0.167c1.031-1.491,2.063-2.563,3.094-3.215S497.905,192.091,499.062,192.091z"/>
			<path fill="#969696" d="M507.224,213.447c-1.752,0-3.138-0.631-4.156-1.892s-1.527-3.034-1.527-5.32
				c0-2.51,0.432-4.857,1.295-7.044s2.053-3.917,3.568-5.19s3.181-1.91,4.994-1.91c1.205,0,2.242,0.283,3.112,0.849
				c0.869,0.565,1.547,1.388,2.031,2.469h0.187l1.155-2.944h3.354l-4.398,20.61h-3.392l0.392-3.279h-0.111
				C511.764,212.229,509.597,213.447,507.224,213.447z M508.826,209.906c1.019,0,2.019-0.481,3-1.444s1.789-2.252,2.423-3.866
				c0.634-1.615,0.95-3.38,0.95-5.293c0-1.093-0.292-1.972-0.876-2.637c-0.584-0.664-1.348-0.997-2.292-0.997
				c-1.056,0-2.05,0.479-2.981,1.435c-0.932,0.957-1.677,2.259-2.236,3.904c-0.559,1.646-0.839,3.352-0.839,5.115
				c0,1.268,0.252,2.215,0.755,2.842C507.232,209.593,507.932,209.906,508.826,209.906z"/>
			<path fill="#969696" d="M527.163,213.074h-4.397l4.397-20.61h4.38L527.163,213.074z M528.039,187.396
				c0-0.845,0.242-1.528,0.727-2.05c0.485-0.522,1.168-0.783,2.05-0.783c0.659,0,1.193,0.165,1.604,0.494
				c0.409,0.329,0.614,0.829,0.614,1.5c0,0.882-0.248,1.578-0.745,2.087c-0.497,0.51-1.149,0.764-1.957,0.764
				c-0.658,0-1.205-0.161-1.64-0.484C528.257,188.601,528.039,188.091,528.039,187.396z"/>
			<path fill="#969696" d="M546.953,206.738c0,2.149-0.732,3.805-2.198,4.966c-1.467,1.162-3.504,1.743-6.112,1.743
				c-2.361,0-4.361-0.416-6.001-1.249v-3.783c1.901,1.118,3.839,1.678,5.814,1.678c1.205,0,2.18-0.249,2.926-0.745
				c0.745-0.497,1.118-1.175,1.118-2.031c0-0.634-0.215-1.178-0.644-1.631s-1.308-1.06-2.637-1.817
				c-1.553-0.832-2.649-1.68-3.289-2.543s-0.96-1.886-0.96-3.065c0-1.926,0.665-3.436,1.994-4.528
				c1.329-1.094,3.125-1.641,5.386-1.641c2.435,0,4.584,0.522,6.448,1.565l-1.417,3.28c-1.739-0.944-3.392-1.417-4.957-1.417
				c-0.906,0-1.643,0.205-2.208,0.615s-0.848,0.981-0.848,1.715c0,0.559,0.205,1.056,0.615,1.49
				c0.409,0.436,1.248,0.994,2.516,1.678c1.304,0.733,2.229,1.36,2.776,1.882s0.963,1.09,1.248,1.705
				C546.811,205.22,546.953,205.931,546.953,206.738z"/>
		</g>
	</g>
</g>
<g id="Paypal_-_4X_-_EN" display="none">
	<g display="inline">
		<g>
			<g>
				<linearGradient id="SVGID_4_" gradientUnits="userSpaceOnUse" x1="50.2417" y1="128.6387" x2="273.6909" y2="128.6387">
					<stop  offset="0" style="stop-color:#03B5F6"/>
					<stop  offset="0.9845" style="stop-color:#008EE5"/>
				</linearGradient>
				<path fill="url(#SVGID_4_)" d="M273.677,89.487c0-3.969-3.584-7.46-8.108-7.46c0,0-54.102-0.042-58.72-0.042H96.897
					c-25.767,0-46.655,20.888-46.655,46.654s20.889,46.655,46.655,46.655h130.396c24.113,0,43.952-18.295,46.398-41.76
					C273.691,129.116,273.677,89.487,273.677,89.487z"/>
				<g>
					<path fill="#FFFFFF" d="M158.48,143.653h-5.396v9.486h-13.071v-9.486h-19.54v-9.72l20.377-29.794h12.233v29.626h5.396V143.653z
						 M140.013,133.765v-5.697c0-1.071,0.039-2.518,0.117-4.34c0.078-1.82,0.139-2.775,0.184-2.865h-0.368
						c-0.76,1.721-1.621,3.33-2.581,4.827l-5.43,8.075H140.013z"/>
					<path fill="#FFFFFF" d="M208.954,153.139h-15.316l-9.552-15.318l-9.452,15.318h-14.981l16.255-25.071l-15.283-23.929h14.68
						l8.848,15.149l8.513-15.149h15.116l-15.518,24.968L208.954,153.139z"/>
				</g>
			</g>
			<g>
				<path fill="#139AD6" d="M469.335,95.283h-19.062c-1.12,0-2.241,1.122-2.802,2.243l-7.849,49.33c0,1.123,0.56,1.682,1.682,1.682
					h10.09c1.122,0,1.683-0.559,1.683-1.682l2.243-14.013c0-1.122,1.119-2.243,2.802-2.243h6.166
					c12.894,0,20.181-6.165,21.862-18.499c1.122-5.045,0-9.529-2.243-12.332C480.546,96.966,475.5,95.283,469.335,95.283
					 M471.577,113.783c-1.121,6.728-6.167,6.728-11.212,6.728h-3.364l2.243-12.894c0-0.561,0.56-1.122,1.681-1.122h1.122
					c3.363,0,6.727,0,8.409,2.243C471.577,109.298,471.577,110.98,471.577,113.783"/>
				<g>
					<path fill="#263B80" d="M331.993,95.283h-19.06c-1.122,0-2.242,1.122-2.804,2.243l-7.849,49.33
						c0,1.123,0.561,1.682,1.683,1.682h8.97c1.12,0,2.241-1.121,2.804-2.241l2.241-13.453c0-1.122,1.121-2.243,2.802-2.243h6.167
						c12.893,0,20.182-6.165,21.862-18.499c1.12-5.045,0-9.529-2.242-12.332C343.204,96.966,338.72,95.283,331.993,95.283
						 M334.234,113.783c-1.12,6.728-6.166,6.728-11.212,6.728h-2.802l2.241-12.894c0-0.561,0.561-1.122,1.682-1.122h1.122
						c3.363,0,6.728,0,8.409,2.243C334.234,109.298,334.795,110.98,334.234,113.783"/>
					<path fill="#263B80" d="M389.731,113.222h-8.97c-0.561,0-1.681,0.561-1.681,1.122l-0.563,2.803l-0.56-1.121
						c-2.241-2.804-6.165-3.925-10.65-3.925c-10.091,0-19.059,7.847-20.741,18.499c-1.121,5.606,0.562,10.653,3.362,14.014
						c2.804,3.365,6.728,4.485,11.773,4.485c8.409,0,12.894-5.045,12.894-5.045l-0.56,2.802c0,1.123,0.56,1.682,1.681,1.682h8.407
						c1.122,0,2.242-1.121,2.804-2.241l5.045-31.392C391.414,114.344,390.292,113.222,389.731,113.222 M376.841,131.161
						c-1.123,5.046-5.047,8.97-10.654,8.97c-2.803,0-5.044-1.12-6.165-2.242c-1.121-1.682-1.682-3.924-1.682-6.728
						c0.561-5.045,5.044-8.969,10.091-8.969c2.803,0,4.483,1.122,6.166,2.243C376.278,126.116,376.841,128.919,376.841,131.161"/>
				</g>
				<path fill="#139AD6" d="M526.514,113.222h-8.971c-0.562,0-1.682,0.561-1.682,1.122l-0.56,2.803l-0.562-1.121
					c-2.243-2.804-6.167-3.925-10.649-3.925c-10.093,0-19.062,7.847-20.743,18.499c-1.121,5.606,0.56,10.653,3.363,14.014
					c2.804,3.365,6.728,4.485,11.772,4.485c8.409,0,12.893-5.045,12.893-5.045l-0.562,2.802c0,1.123,0.562,1.682,1.683,1.682h8.409
					c1.122,0,2.243-1.121,2.804-2.241l5.045-31.392C528.194,114.344,527.635,113.222,526.514,113.222 M513.618,131.161
					c-1.121,5.046-5.045,8.97-10.649,8.97c-2.804,0-5.045-1.12-6.166-2.242c-1.121-1.682-1.683-3.924-1.683-6.728
					c0.562-5.045,5.045-8.969,10.089-8.969c2.804,0,4.486,1.122,6.167,2.243C513.618,126.116,514.18,128.919,513.618,131.161"/>
				<path fill="#263B80" d="M438.503,113.222h-9.53c-1.123,0-1.683,0.561-2.242,1.122l-12.333,19.06l-5.605-17.938
					c-0.561-1.122-1.122-1.683-2.802-1.683h-8.97c-1.123,0-1.684,1.122-1.684,2.243l10.091,29.709l-9.53,13.455
					c-0.561,1.121,0,2.805,1.123,2.805h8.97c1.119,0,1.68-0.563,2.241-1.123l30.831-44.285
					C440.745,114.904,439.623,113.222,438.503,113.222"/>
				<path fill="#139AD6" d="M537.162,96.966l-7.846,50.451c0,1.121,0.56,1.683,1.681,1.683h7.847c1.12,0,2.243-1.12,2.804-2.243
					l7.849-49.33c0-1.122-0.561-1.682-1.682-1.682h-8.971C538.286,95.283,537.724,95.844,537.162,96.966"/>
			</g>
		</g>
		<g>
			<path fill="#969696" d="M67.4,195.162c0,2.311-0.789,4.084-2.368,5.322s-3.779,1.857-6.601,1.857h-1.537l-1.606,7.643h-3.311
				l4.316-20.424h4.666c2.132,0,3.739,0.469,4.819,1.404C66.86,191.9,67.4,193.299,67.4,195.162z M57.496,199.535h1.313
				c1.657,0,2.94-0.371,3.849-1.111c0.908-0.74,1.362-1.789,1.362-3.15c0-1.014-0.272-1.754-0.817-2.221
				c-0.544-0.465-1.381-0.699-2.507-0.699h-1.663L57.496,199.535z"/>
			<path fill="#969696" d="M72.974,210.264c-1.313,0-2.352-0.473-3.115-1.418s-1.146-2.275-1.146-3.988
				c0-1.881,0.324-3.641,0.971-5.281c0.647-1.639,1.539-2.936,2.675-3.891c1.136-0.953,2.384-1.432,3.744-1.432
				c0.903,0,1.681,0.213,2.333,0.637s1.16,1.039,1.523,1.85h0.14l0.866-2.207h2.514l-3.296,15.451H77.64l0.293-2.459h-0.084
				C76.377,209.352,74.752,210.264,72.974,210.264z M74.175,207.609c0.763,0,1.513-0.361,2.249-1.082
				c0.735-0.723,1.341-1.689,1.816-2.9c0.475-1.209,0.712-2.531,0.712-3.967c0-0.818-0.219-1.479-0.657-1.977
				c-0.438-0.498-1.01-0.748-1.718-0.748c-0.792,0-1.537,0.359-2.235,1.076c-0.699,0.717-1.257,1.693-1.676,2.928
				c-0.419,1.232-0.629,2.512-0.629,3.834c0,0.949,0.189,1.66,0.566,2.131C72.98,207.373,73.504,207.609,74.175,207.609z"/>
			<path fill="#969696" d="M85.365,194.533h3.241l0.88,7.418c0.083,0.578,0.158,1.391,0.223,2.438
				c0.065,1.049,0.098,1.893,0.098,2.535h0.083c0.801-2.002,1.43-3.459,1.886-4.371l4.093-8.02h3.548l-9.611,17.881
				c-0.838,1.537-1.751,2.662-2.738,3.375c-0.987,0.711-2.146,1.068-3.478,1.068c-0.708,0-1.374-0.09-1.998-0.266v-2.627
				c0.699,0.148,1.281,0.225,1.747,0.225c0.689,0,1.313-0.203,1.872-0.609c0.559-0.404,1.136-1.129,1.732-2.172l0.712-1.285
				L85.365,194.533z"/>
			<path fill="#969696" d="M109.267,194.254c2.049,0,3.231,1.096,3.548,3.283h0.111c0.699-1.08,1.493-1.896,2.382-2.451
				c0.89-0.555,1.814-0.832,2.773-0.832c1.239,0,2.182,0.357,2.829,1.068c0.647,0.713,0.971,1.717,0.971,3.012
				c0,0.596-0.103,1.438-0.307,2.527l-1.956,9.123h-3.283l1.998-9.389c0.177-0.885,0.266-1.504,0.266-1.857
				c0-1.201-0.563-1.803-1.69-1.803c-1.006,0-1.944,0.578-2.815,1.732c-0.871,1.156-1.506,2.688-1.907,4.596l-1.411,6.721h-3.283
				l1.998-9.389c0.158-0.764,0.237-1.354,0.237-1.773c0-1.258-0.545-1.887-1.634-1.887c-1.025,0-1.972,0.592-2.843,1.775
				c-0.871,1.182-1.516,2.756-1.935,4.721l-1.369,6.553H98.65l3.296-15.451h2.571l-0.293,2.863h0.125
				C105.728,195.303,107.367,194.254,109.267,194.254z"/>
			<path fill="#969696" d="M130.556,210.264c-1.835,0-3.267-0.518-4.295-1.551c-1.029-1.033-1.544-2.477-1.544-4.33
				c0-1.844,0.361-3.561,1.083-5.148c0.721-1.588,1.699-2.814,2.933-3.682c1.234-0.865,2.615-1.299,4.142-1.299
				c1.5,0,2.666,0.338,3.5,1.014s1.25,1.631,1.25,2.871c0,1.693-0.775,3.02-2.326,3.973c-1.551,0.955-3.76,1.434-6.628,1.434h-0.601
				l-0.028,0.432v0.406c0,1.033,0.263,1.844,0.79,2.43c0.526,0.588,1.311,0.881,2.354,0.881c0.671,0,1.336-0.088,1.998-0.266
				c0.661-0.178,1.443-0.48,2.347-0.908v2.611c-0.894,0.41-1.716,0.701-2.466,0.873
				C132.314,210.178,131.478,210.264,130.556,210.264z M132.68,196.77c-0.894,0-1.735,0.4-2.521,1.201
				c-0.787,0.801-1.353,1.857-1.697,3.17h0.405c1.751,0,3.12-0.248,4.107-0.746c0.987-0.498,1.481-1.205,1.481-2.117
				c0-0.475-0.149-0.846-0.447-1.111C133.708,196.902,133.266,196.77,132.68,196.77z"/>
			<path fill="#969696" d="M148.228,209.984l1.983-9.389c0.168-0.838,0.251-1.447,0.251-1.83c0-1.219-0.601-1.83-1.802-1.83
				c-0.671,0-1.332,0.266-1.984,0.797s-1.239,1.297-1.76,2.299c-0.521,1-0.913,2.135-1.173,3.4l-1.369,6.553h-3.296l3.296-15.451
				h2.571l-0.293,2.863h0.125c0.773-1.098,1.569-1.896,2.389-2.395c0.819-0.498,1.708-0.748,2.668-0.748
				c1.248,0,2.214,0.354,2.898,1.063c0.685,0.707,1.027,1.713,1.027,3.018c0,0.643-0.107,1.484-0.321,2.527l-1.914,9.123H148.228z"
				/>
			<path fill="#969696" d="M161.652,207.609c0.633,0,1.336-0.145,2.109-0.434v2.486c-0.326,0.158-0.768,0.299-1.327,0.42
				c-0.559,0.121-1.117,0.182-1.676,0.182c-2.552,0-3.828-1.15-3.828-3.451c0-0.531,0.075-1.141,0.224-1.83l1.69-7.963h-2.263
				l0.293-1.535l2.654-1.146l1.802-3.24h2.04l-0.726,3.436h3.897l-0.545,2.486h-3.87l-1.704,7.992
				c-0.121,0.512-0.182,0.939-0.182,1.285c0,0.4,0.116,0.719,0.349,0.955C160.823,207.49,161.177,207.609,161.652,207.609z"/>
			<path fill="#969696" d="M177.186,209.984h-3.296l3.296-15.451h3.283L177.186,209.984z M177.842,190.734
				c0-0.633,0.182-1.146,0.545-1.537s0.875-0.586,1.537-0.586c0.494,0,0.894,0.123,1.201,0.369c0.308,0.248,0.461,0.621,0.461,1.125
				c0,0.662-0.186,1.184-0.559,1.564c-0.373,0.383-0.861,0.572-1.467,0.572c-0.494,0-0.903-0.121-1.229-0.363
				C178.005,191.637,177.842,191.256,177.842,190.734z"/>
			<path fill="#969696" d="M190.904,209.984l1.983-9.389c0.168-0.838,0.251-1.447,0.251-1.83c0-1.219-0.601-1.83-1.802-1.83
				c-0.671,0-1.332,0.266-1.984,0.797s-1.239,1.297-1.76,2.299c-0.521,1-0.913,2.135-1.173,3.4l-1.369,6.553h-3.296l3.296-15.451
				h2.571l-0.293,2.863h0.125c0.773-1.098,1.569-1.896,2.389-2.395c0.819-0.498,1.708-0.748,2.668-0.748
				c1.248,0,2.214,0.354,2.898,1.063c0.685,0.707,1.027,1.713,1.027,3.018c0,0.643-0.107,1.484-0.321,2.527l-1.914,9.123H190.904z"
				/>
			<path fill="#969696" d="M219.933,209.984h-3.576l-2.682-8.27l-6.119,8.27h-3.702l8.186-10.758l-3.492-9.666h3.437l2.487,7.543
				l5.616-7.543h3.716l-7.697,9.918L219.933,209.984z"/>
			<path fill="#969696" d="M232.868,209.984h-3.296l3.296-15.451h3.283L232.868,209.984z M233.525,190.734
				c0-0.633,0.182-1.146,0.545-1.537s0.875-0.586,1.537-0.586c0.494,0,0.894,0.123,1.201,0.369c0.308,0.248,0.461,0.621,0.461,1.125
				c0,0.662-0.186,1.184-0.559,1.564c-0.373,0.383-0.861,0.572-1.467,0.572c-0.494,0-0.903-0.121-1.229-0.363
				C233.688,191.637,233.525,191.256,233.525,190.734z"/>
			<path fill="#969696" d="M246.586,209.984l1.983-9.389c0.168-0.838,0.251-1.447,0.251-1.83c0-1.219-0.601-1.83-1.802-1.83
				c-0.671,0-1.332,0.266-1.984,0.797s-1.239,1.297-1.76,2.299c-0.521,1-0.913,2.135-1.173,3.4l-1.369,6.553h-3.296l3.296-15.451
				h2.571l-0.293,2.863h0.125c0.773-1.098,1.569-1.896,2.389-2.395c0.819-0.498,1.708-0.748,2.668-0.748
				c1.248,0,2.214,0.354,2.898,1.063c0.685,0.707,1.027,1.713,1.027,3.018c0,0.643-0.107,1.484-0.321,2.527l-1.914,9.123H246.586z"
				/>
			<path fill="#969696" d="M260.011,207.609c0.633,0,1.336-0.145,2.109-0.434v2.486c-0.326,0.158-0.768,0.299-1.327,0.42
				c-0.559,0.121-1.117,0.182-1.676,0.182c-2.552,0-3.828-1.15-3.828-3.451c0-0.531,0.075-1.141,0.224-1.83l1.69-7.963h-2.263
				l0.293-1.535l2.654-1.146l1.802-3.24h2.04l-0.726,3.436h3.897l-0.545,2.486h-3.87l-1.704,7.992
				c-0.121,0.512-0.182,0.939-0.182,1.285c0,0.4,0.116,0.719,0.349,0.955C259.182,207.49,259.536,207.609,260.011,207.609z"/>
			<path fill="#969696" d="M271.312,210.264c-1.835,0-3.267-0.518-4.295-1.551c-1.029-1.033-1.544-2.477-1.544-4.33
				c0-1.844,0.361-3.561,1.083-5.148c0.721-1.588,1.699-2.814,2.933-3.682c1.234-0.865,2.615-1.299,4.142-1.299
				c1.5,0,2.666,0.338,3.5,1.014s1.25,1.631,1.25,2.871c0,1.693-0.775,3.02-2.326,3.973c-1.551,0.955-3.76,1.434-6.628,1.434h-0.601
				l-0.028,0.432v0.406c0,1.033,0.263,1.844,0.79,2.43c0.526,0.588,1.311,0.881,2.354,0.881c0.671,0,1.336-0.088,1.998-0.266
				c0.661-0.178,1.443-0.48,2.347-0.908v2.611c-0.894,0.41-1.716,0.701-2.466,0.873C273.07,210.178,272.234,210.264,271.312,210.264
				z M273.436,196.77c-0.894,0-1.735,0.4-2.521,1.201c-0.787,0.801-1.353,1.857-1.697,3.17h0.405c1.751,0,3.12-0.248,4.107-0.746
				c0.987-0.498,1.481-1.205,1.481-2.117c0-0.475-0.149-0.846-0.447-1.111C274.464,196.902,274.022,196.77,273.436,196.77z"/>
			<path fill="#969696" d="M290.311,194.254c0.577,0,1.08,0.057,1.509,0.168l-0.713,3.059c-0.502-0.129-0.978-0.195-1.425-0.195
				c-1.173,0-2.221,0.527-3.143,1.578c-0.922,1.053-1.564,2.432-1.928,4.137l-1.481,6.984h-3.296l3.296-15.451h2.571l-0.293,2.863
				h0.125c0.773-1.117,1.546-1.92,2.319-2.408C288.625,194.498,289.444,194.254,290.311,194.254z"/>
			<path fill="#969696" d="M298.008,210.264c-1.835,0-3.267-0.518-4.295-1.551c-1.029-1.033-1.544-2.477-1.544-4.33
				c0-1.844,0.361-3.561,1.083-5.148c0.721-1.588,1.699-2.814,2.933-3.682c1.234-0.865,2.615-1.299,4.142-1.299
				c1.5,0,2.666,0.338,3.5,1.014c0.833,0.676,1.25,1.631,1.25,2.871c0,1.693-0.775,3.02-2.326,3.973
				c-1.551,0.955-3.76,1.434-6.628,1.434h-0.601l-0.028,0.432v0.406c0,1.033,0.263,1.844,0.79,2.43
				c0.526,0.588,1.311,0.881,2.354,0.881c0.671,0,1.336-0.088,1.998-0.266c0.661-0.178,1.443-0.48,2.346-0.908v2.611
				c-0.894,0.41-1.716,0.701-2.465,0.873C299.766,210.178,298.93,210.264,298.008,210.264z M300.131,196.77
				c-0.894,0-1.735,0.4-2.521,1.201c-0.787,0.801-1.353,1.857-1.697,3.17h0.405c1.751,0,3.12-0.248,4.107-0.746
				c0.988-0.498,1.481-1.205,1.481-2.117c0-0.475-0.149-0.846-0.446-1.111C301.16,196.902,300.718,196.77,300.131,196.77z"/>
			<path fill="#969696" d="M316.796,205.234c0,1.611-0.55,2.852-1.648,3.723s-2.626,1.307-4.582,1.307
				c-1.77,0-3.269-0.313-4.498-0.936v-2.836c1.425,0.838,2.878,1.256,4.358,1.256c0.903,0,1.635-0.186,2.193-0.559
				c0.559-0.371,0.838-0.879,0.838-1.521c0-0.477-0.16-0.883-0.481-1.223s-0.98-0.795-1.977-1.363
				c-1.164-0.623-1.986-1.258-2.466-1.906c-0.479-0.646-0.72-1.412-0.72-2.297c0-1.443,0.498-2.576,1.495-3.395
				c0.996-0.82,2.342-1.23,4.037-1.23c1.825,0,3.437,0.391,4.833,1.174l-1.062,2.459c-1.304-0.709-2.542-1.063-3.716-1.063
				c-0.68,0-1.231,0.154-1.655,0.461c-0.424,0.309-0.636,0.736-0.636,1.285c0,0.42,0.154,0.793,0.461,1.117
				c0.308,0.326,0.937,0.746,1.886,1.258c0.979,0.551,1.672,1.02,2.082,1.412c0.409,0.391,0.722,0.816,0.936,1.277
				C316.689,204.096,316.796,204.629,316.796,205.234z"/>
			<path fill="#969696" d="M325.108,207.609c0.633,0,1.336-0.145,2.109-0.434v2.486c-0.326,0.158-0.769,0.299-1.327,0.42
				s-1.118,0.182-1.677,0.182c-2.552,0-3.827-1.15-3.827-3.451c0-0.531,0.074-1.141,0.224-1.83l1.689-7.963h-2.263l0.293-1.535
				l2.654-1.146l1.803-3.24h2.039l-0.727,3.436h3.897l-0.545,2.486h-3.869l-1.704,7.992c-0.121,0.512-0.182,0.939-0.182,1.285
				c0,0.4,0.116,0.719,0.349,0.955C324.279,207.49,324.633,207.609,325.108,207.609z"/>
			<path fill="#969696" d="M329.914,203.754l0.629-2.836h7.013l-0.629,2.836H329.914z"/>
			<path fill="#969696" d="M337.262,216.857c-0.838,0-1.532-0.107-2.082-0.322v-2.654c0.597,0.188,1.127,0.279,1.593,0.279
				c1.248,0,2.072-0.955,2.473-2.863l3.031-14.277h-2.5l0.293-1.48l2.71-1.061l0.294-1.285c0.409-1.844,1.035-3.156,1.879-3.934
				c0.843-0.777,2.037-1.166,3.583-1.166c1.07,0,2.054,0.201,2.947,0.602l-0.853,2.457c-0.688-0.26-1.322-0.391-1.899-0.391
				c-0.643,0-1.157,0.201-1.544,0.602c-0.386,0.4-0.682,1.057-0.887,1.969l-0.251,1.201h3.198l-0.517,2.486h-3.199l-3.115,14.711
				c-0.372,1.76-0.982,3.055-1.83,3.883S338.631,216.857,337.262,216.857z"/>
			<path fill="#969696" d="M359.264,194.254c0.577,0,1.08,0.057,1.509,0.168l-0.713,3.059c-0.503-0.129-0.978-0.195-1.425-0.195
				c-1.173,0-2.221,0.527-3.143,1.578c-0.923,1.053-1.565,2.432-1.928,4.137l-1.481,6.984h-3.297l3.297-15.451h2.57l-0.293,2.863
				h0.126c0.772-1.117,1.546-1.92,2.318-2.408C357.578,194.498,358.397,194.254,359.264,194.254z"/>
			<path fill="#969696" d="M366.961,210.264c-1.835,0-3.267-0.518-4.296-1.551s-1.543-2.477-1.543-4.33
				c0-1.844,0.36-3.561,1.082-5.148s1.7-2.814,2.934-3.682c1.234-0.865,2.614-1.299,4.143-1.299c1.499,0,2.665,0.338,3.499,1.014
				c0.833,0.676,1.25,1.631,1.25,2.871c0,1.693-0.775,3.02-2.326,3.973c-1.55,0.955-3.76,1.434-6.628,1.434h-0.601l-0.028,0.432
				v0.406c0,1.033,0.263,1.844,0.789,2.43c0.526,0.588,1.312,0.881,2.354,0.881c0.67,0,1.336-0.088,1.997-0.266
				s1.443-0.48,2.347-0.908v2.611c-0.894,0.41-1.716,0.701-2.465,0.873C368.719,210.178,367.883,210.264,366.961,210.264z
				 M369.084,196.77c-0.894,0-1.734,0.4-2.521,1.201s-1.353,1.857-1.697,3.17h0.405c1.751,0,3.12-0.248,4.107-0.746
				c0.986-0.498,1.48-1.205,1.48-2.117c0-0.475-0.149-0.846-0.447-1.111C370.113,196.902,369.671,196.77,369.084,196.77z"/>
			<path fill="#969696" d="M381.978,210.264c-1.835,0-3.267-0.518-4.296-1.551s-1.543-2.477-1.543-4.33
				c0-1.844,0.36-3.561,1.082-5.148s1.7-2.814,2.934-3.682c1.234-0.865,2.614-1.299,4.143-1.299c1.499,0,2.665,0.338,3.499,1.014
				c0.833,0.676,1.25,1.631,1.25,2.871c0,1.693-0.775,3.02-2.326,3.973c-1.55,0.955-3.76,1.434-6.628,1.434h-0.601l-0.028,0.432
				v0.406c0,1.033,0.263,1.844,0.789,2.43c0.526,0.588,1.312,0.881,2.354,0.881c0.67,0,1.336-0.088,1.997-0.266
				s1.443-0.48,2.347-0.908v2.611c-0.894,0.41-1.716,0.701-2.465,0.873C383.735,210.178,382.899,210.264,381.978,210.264z
				 M384.101,196.77c-0.894,0-1.734,0.4-2.521,1.201s-1.353,1.857-1.697,3.17h0.405c1.751,0,3.12-0.248,4.107-0.746
				c0.986-0.498,1.48-1.205,1.48-2.117c0-0.475-0.149-0.846-0.447-1.111C385.13,196.902,384.688,196.77,384.101,196.77z"/>
			<path fill="#969696" d="M401.228,209.984h-3.297l3.297-15.451h3.283L401.228,209.984z M401.885,190.734
				c0-0.633,0.182-1.146,0.544-1.537c0.363-0.391,0.876-0.586,1.537-0.586c0.493,0,0.894,0.123,1.201,0.369
				c0.308,0.248,0.461,0.621,0.461,1.125c0,0.662-0.187,1.184-0.559,1.564c-0.373,0.383-0.861,0.572-1.467,0.572
				c-0.494,0-0.903-0.121-1.229-0.363S401.885,191.256,401.885,190.734z"/>
			<path fill="#969696" d="M414.946,209.984l1.983-9.389c0.168-0.838,0.252-1.447,0.252-1.83c0-1.219-0.601-1.83-1.803-1.83
				c-0.67,0-1.332,0.266-1.983,0.797c-0.652,0.531-1.238,1.297-1.76,2.299c-0.521,1-0.913,2.135-1.174,3.4l-1.369,6.553h-3.297
				l3.297-15.451h2.57l-0.293,2.863h0.126c0.772-1.098,1.568-1.896,2.389-2.395c0.819-0.498,1.709-0.748,2.668-0.748
				c1.248,0,2.214,0.354,2.898,1.063c0.685,0.707,1.027,1.713,1.027,3.018c0,0.643-0.107,1.484-0.321,2.527l-1.914,9.123H414.946z"
				/>
			<path fill="#969696" d="M432.938,205.234c0,1.611-0.55,2.852-1.648,3.723s-2.626,1.307-4.582,1.307
				c-1.77,0-3.269-0.313-4.498-0.936v-2.836c1.425,0.838,2.878,1.256,4.358,1.256c0.903,0,1.635-0.186,2.193-0.559
				c0.559-0.371,0.838-0.879,0.838-1.521c0-0.477-0.16-0.883-0.481-1.223s-0.98-0.795-1.977-1.363
				c-1.164-0.623-1.986-1.258-2.466-1.906c-0.479-0.646-0.72-1.412-0.72-2.297c0-1.443,0.498-2.576,1.495-3.395
				c0.996-0.82,2.342-1.23,4.037-1.23c1.825,0,3.437,0.391,4.833,1.174l-1.062,2.459c-1.304-0.709-2.542-1.063-3.716-1.063
				c-0.68,0-1.231,0.154-1.655,0.461c-0.424,0.309-0.636,0.736-0.636,1.285c0,0.42,0.154,0.793,0.461,1.117
				c0.308,0.326,0.937,0.746,1.886,1.258c0.979,0.551,1.672,1.02,2.082,1.412c0.409,0.391,0.722,0.816,0.936,1.277
				C432.832,204.096,432.938,204.629,432.938,205.234z"/>
			<path fill="#969696" d="M441.251,207.609c0.633,0,1.336-0.145,2.109-0.434v2.486c-0.326,0.158-0.769,0.299-1.327,0.42
				s-1.118,0.182-1.677,0.182c-2.552,0-3.827-1.15-3.827-3.451c0-0.531,0.074-1.141,0.224-1.83l1.689-7.963h-2.263l0.293-1.535
				l2.654-1.146l1.803-3.24h2.039l-0.727,3.436h3.897l-0.545,2.486h-3.869l-1.704,7.992c-0.121,0.512-0.182,0.939-0.182,1.285
				c0,0.4,0.116,0.719,0.349,0.955C440.422,207.49,440.775,207.609,441.251,207.609z"/>
			<path fill="#969696" d="M450.974,210.264c-1.313,0-2.353-0.473-3.115-1.418c-0.764-0.945-1.146-2.275-1.146-3.988
				c0-1.881,0.323-3.641,0.971-5.281c0.647-1.639,1.539-2.936,2.675-3.891c1.137-0.953,2.384-1.432,3.744-1.432
				c0.903,0,1.681,0.213,2.333,0.637c0.651,0.424,1.159,1.039,1.522,1.85h0.14l0.866-2.207h2.515l-3.297,15.451h-2.543l0.294-2.459
				h-0.084C454.377,209.352,452.752,210.264,450.974,210.264z M452.175,207.609c0.764,0,1.513-0.361,2.249-1.082
				c0.735-0.723,1.341-1.689,1.815-2.9c0.476-1.209,0.713-2.531,0.713-3.967c0-0.818-0.219-1.479-0.656-1.977
				c-0.438-0.498-1.011-0.748-1.719-0.748c-0.791,0-1.536,0.359-2.235,1.076c-0.698,0.717-1.257,1.693-1.676,2.928
				c-0.419,1.232-0.629,2.512-0.629,3.834c0,0.949,0.188,1.66,0.566,2.131C450.98,207.373,451.504,207.609,452.175,207.609z"/>
			<path fill="#969696" d="M465.893,209.984h-3.27l4.61-21.736h3.282L465.893,209.984z"/>
			<path fill="#969696" d="M481.105,194.254c2.049,0,3.231,1.096,3.548,3.283h0.112c0.698-1.08,1.492-1.896,2.382-2.451
				c0.889-0.555,1.813-0.832,2.772-0.832c1.238,0,2.182,0.357,2.829,1.068c0.647,0.713,0.971,1.717,0.971,3.012
				c0,0.596-0.103,1.438-0.308,2.527l-1.955,9.123h-3.283l1.998-9.389c0.177-0.885,0.265-1.504,0.265-1.857
				c0-1.201-0.563-1.803-1.689-1.803c-1.006,0-1.944,0.578-2.815,1.732c-0.871,1.156-1.506,2.688-1.906,4.596l-1.411,6.721h-3.283
				l1.998-9.389c0.158-0.764,0.237-1.354,0.237-1.773c0-1.258-0.545-1.887-1.635-1.887c-1.024,0-1.972,0.592-2.843,1.775
				c-0.871,1.182-1.516,2.756-1.935,4.721l-1.369,6.553h-3.297l3.297-15.451h2.57l-0.293,2.863h0.126
				C477.566,195.303,479.205,194.254,481.105,194.254z"/>
			<path fill="#969696" d="M502.395,210.264c-1.835,0-3.267-0.518-4.296-1.551s-1.543-2.477-1.543-4.33
				c0-1.844,0.36-3.561,1.082-5.148s1.7-2.814,2.934-3.682c1.234-0.865,2.614-1.299,4.143-1.299c1.499,0,2.665,0.338,3.499,1.014
				c0.833,0.676,1.25,1.631,1.25,2.871c0,1.693-0.775,3.02-2.326,3.973c-1.55,0.955-3.76,1.434-6.628,1.434h-0.601l-0.028,0.432
				v0.406c0,1.033,0.263,1.844,0.789,2.43c0.526,0.588,1.312,0.881,2.354,0.881c0.67,0,1.336-0.088,1.997-0.266
				s1.443-0.48,2.347-0.908v2.611c-0.894,0.41-1.716,0.701-2.465,0.873C504.152,210.178,503.316,210.264,502.395,210.264z
				 M504.518,196.77c-0.894,0-1.734,0.4-2.521,1.201s-1.353,1.857-1.697,3.17h0.405c1.751,0,3.12-0.248,4.107-0.746
				c0.986-0.498,1.48-1.205,1.48-2.117c0-0.475-0.149-0.846-0.447-1.111C505.547,196.902,505.104,196.77,504.518,196.77z"/>
			<path fill="#969696" d="M520.066,209.984l1.983-9.389c0.168-0.838,0.252-1.447,0.252-1.83c0-1.219-0.601-1.83-1.803-1.83
				c-0.67,0-1.332,0.266-1.983,0.797c-0.652,0.531-1.238,1.297-1.76,2.299c-0.521,1-0.913,2.135-1.174,3.4l-1.369,6.553h-3.297
				l3.297-15.451h2.57l-0.293,2.863h0.126c0.772-1.098,1.568-1.896,2.389-2.395c0.819-0.498,1.709-0.748,2.668-0.748
				c1.248,0,2.214,0.354,2.898,1.063c0.685,0.707,1.027,1.713,1.027,3.018c0,0.643-0.107,1.484-0.321,2.527l-1.914,9.123H520.066z"
				/>
			<path fill="#969696" d="M533.491,207.609c0.633,0,1.336-0.145,2.109-0.434v2.486c-0.326,0.158-0.769,0.299-1.327,0.42
				s-1.118,0.182-1.677,0.182c-2.552,0-3.827-1.15-3.827-3.451c0-0.531,0.074-1.141,0.224-1.83l1.689-7.963h-2.263l0.293-1.535
				l2.654-1.146l1.803-3.24h2.039l-0.727,3.436h3.897l-0.545,2.486h-3.869l-1.704,7.992c-0.121,0.512-0.182,0.939-0.182,1.285
				c0,0.4,0.116,0.719,0.349,0.955C532.662,207.49,533.016,207.609,533.491,207.609z"/>
			<path fill="#969696" d="M548.563,205.234c0,1.611-0.55,2.852-1.648,3.723s-2.626,1.307-4.582,1.307
				c-1.77,0-3.269-0.313-4.498-0.936v-2.836c1.425,0.838,2.878,1.256,4.358,1.256c0.903,0,1.635-0.186,2.193-0.559
				c0.559-0.371,0.838-0.879,0.838-1.521c0-0.477-0.16-0.883-0.481-1.223s-0.98-0.795-1.977-1.363
				c-1.164-0.623-1.986-1.258-2.466-1.906c-0.479-0.646-0.72-1.412-0.72-2.297c0-1.443,0.498-2.576,1.495-3.395
				c0.996-0.82,2.342-1.23,4.037-1.23c1.825,0,3.437,0.391,4.833,1.174l-1.062,2.459c-1.304-0.709-2.542-1.063-3.716-1.063
				c-0.68,0-1.231,0.154-1.655,0.461c-0.424,0.309-0.636,0.736-0.636,1.285c0,0.42,0.154,0.793,0.461,1.117
				c0.308,0.326,0.937,0.746,1.886,1.258c0.979,0.551,1.672,1.02,2.082,1.412c0.409,0.391,0.722,0.816,0.936,1.277
				C548.457,204.096,548.563,204.629,548.563,205.234z"/>
		</g>
	</g>
</g>
</svg>
